<?xml version="1.0" encoding="utf-8"?>
<svg viewBox="76.46900177001953 6.359000205993652 1379.3909912109375 204.406005859375" xmlns="http://www.w3.org/2000/svg">
  <path d="M 132.271 159.193 C 116.971 159.193 105.348 155.293 97.401 147.493 C 89.448 139.693 85.471 128.293 85.471 113.293 L 85.471 52.093 L 112.471 52.093 L 112.471 114.343 C 112.471 121.943 114.171 127.793 117.571 131.893 C 120.971 135.993 125.871 138.043 132.271 138.043 C 138.671 138.043 143.571 135.993 146.971 131.893 C 150.371 127.793 152.071 121.943 152.071 114.343 L 152.071 52.093 L 179.221 52.093 L 179.221 113.293 C 179.221 128.193 175.194 139.57 167.141 147.423 C 159.094 155.27 147.471 159.193 132.271 159.193 ZM 245.671 82.243 C 254.471 82.243 261.021 84.87 265.321 90.123 C 269.621 95.37 271.771 103.343 271.771 114.043 L 271.771 157.843 L 245.071 157.843 L 245.071 115.243 C 245.071 110.843 244.294 107.643 242.741 105.643 C 241.194 103.643 238.871 102.643 235.771 102.643 C 231.771 102.643 228.594 103.916 226.241 106.463 C 223.894 109.016 222.721 112.443 222.721 116.743 L 222.721 157.843 L 196.021 157.843 L 196.021 84.043 L 221.971 84.043 L 221.971 93.943 C 224.571 90.143 227.921 87.243 232.021 85.243 C 236.121 83.243 240.671 82.243 245.671 82.243 ZM 313.471 157.843 L 286.771 157.843 L 286.771 84.043 L 313.471 84.043 L 313.471 157.843 Z M 286.171 71.293 L 286.171 47.143 L 314.071 47.143 L 314.071 71.293 L 286.171 71.293 ZM 407.071 84.043 L 377.521 119.743 L 408.871 157.843 L 377.671 157.843 L 362.221 138.343 L 346.771 157.843 L 315.721 157.843 L 347.071 119.743 L 317.521 84.043 L 348.871 84.043 L 362.221 101.443 L 375.721 84.043 L 407.071 84.043 ZM 563.821 157.843 L 536.521 157.843 L 527.071 135.943 L 480.271 135.943 L 470.821 157.843 L 443.071 157.843 L 492.421 52.093 L 514.321 52.093 L 563.821 157.843 Z M 503.671 81.343 L 489.121 115.243 L 518.221 115.243 L 503.671 81.343 ZM 617.971 82.243 C 626.771 82.243 633.321 84.87 637.621 90.123 C 641.921 95.37 644.071 103.343 644.071 114.043 L 644.071 157.843 L 617.371 157.843 L 617.371 115.243 C 617.371 110.843 616.594 107.643 615.041 105.643 C 613.494 103.643 611.171 102.643 608.071 102.643 C 604.071 102.643 600.894 103.916 598.541 106.463 C 596.194 109.016 595.021 112.443 595.021 116.743 L 595.021 157.843 L 568.321 157.843 L 568.321 84.043 L 594.271 84.043 L 594.271 93.943 C 596.871 90.143 600.221 87.243 604.321 85.243 C 608.421 83.243 612.971 82.243 617.971 82.243 ZM 710.521 52.093 L 737.221 52.093 L 737.221 157.843 L 710.971 157.843 L 710.971 147.793 C 708.871 151.293 705.798 154.043 701.751 156.043 C 697.698 158.043 693.221 159.043 688.321 159.043 C 682.021 159.043 676.398 157.42 671.451 154.173 C 666.498 150.92 662.621 146.343 659.821 140.443 C 657.021 134.543 655.621 127.793 655.621 120.193 C 655.621 112.593 656.994 105.92 659.741 100.173 C 662.494 94.42 666.344 89.993 671.291 86.893 C 676.244 83.793 681.921 82.243 688.321 82.243 C 693.021 82.243 697.344 83.193 701.291 85.093 C 705.244 86.993 708.321 89.543 710.521 92.743 L 710.521 52.093 Z M 696.421 139.093 C 701.121 139.093 704.721 137.493 707.221 134.293 C 709.721 131.093 710.971 126.493 710.971 120.493 C 710.971 114.593 709.721 110.07 707.221 106.923 C 704.721 103.77 701.121 102.193 696.421 102.193 C 691.821 102.193 688.271 103.743 685.771 106.843 C 683.271 109.943 682.021 114.393 682.021 120.193 C 682.021 126.193 683.294 130.843 685.841 134.143 C 688.394 137.443 691.921 139.093 696.421 139.093 ZM 851.371 112.243 L 883.021 52.093 L 904.321 52.093 L 904.321 157.843 L 880.321 157.843 L 880.321 102.343 L 859.921 140.293 L 842.221 140.293 L 821.971 103.243 L 821.821 157.843 L 797.821 157.843 L 797.821 52.093 L 819.571 52.093 L 851.371 112.243 ZM 959.221 159.043 C 951.121 159.043 943.998 157.47 937.851 154.323 C 931.698 151.17 926.948 146.693 923.601 140.893 C 920.248 135.093 918.571 128.293 918.571 120.493 C 918.571 112.693 920.248 105.92 923.601 100.173 C 926.948 94.42 931.671 89.993 937.771 86.893 C 943.871 83.793 951.021 82.243 959.221 82.243 C 967.421 82.243 974.571 83.793 980.671 86.893 C 986.771 89.993 991.498 94.42 994.851 100.173 C 998.198 105.92 999.871 112.693 999.871 120.493 C 999.871 128.293 998.198 135.093 994.851 140.893 C 991.498 146.693 986.771 151.17 980.671 154.323 C 974.571 157.47 967.421 159.043 959.221 159.043 Z M 959.221 139.093 C 968.721 139.093 973.471 132.893 973.471 120.493 C 973.471 108.093 968.721 101.893 959.221 101.893 C 949.721 101.893 944.971 108.093 944.971 120.493 C 944.971 132.893 949.721 139.093 959.221 139.093 ZM 1067.371 81.943 L 1068.871 103.993 L 1054.321 105.493 C 1048.521 106.093 1044.471 107.643 1042.171 110.143 C 1039.871 112.643 1038.721 116.193 1038.721 120.793 L 1038.721 157.843 L 1012.021 157.843 L 1012.021 84.043 L 1037.371 84.043 L 1037.371 96.793 C 1039.071 92.293 1041.871 88.866 1045.771 86.513 C 1049.671 84.166 1054.421 82.843 1060.021 82.543 L 1067.371 81.943 ZM 1141.471 120.043 L 1141.471 126.043 L 1095.871 126.043 C 1096.671 130.843 1098.421 134.293 1101.121 136.393 C 1103.821 138.493 1107.671 139.543 1112.671 139.543 C 1116.271 139.543 1119.921 138.943 1123.621 137.743 C 1127.321 136.543 1130.621 134.893 1133.521 132.793 L 1140.271 150.343 C 1136.571 153.043 1132.121 155.166 1126.921 156.713 C 1121.721 158.266 1116.521 159.043 1111.321 159.043 C 1102.821 159.043 1095.471 157.493 1089.271 154.393 C 1083.071 151.293 1078.298 146.843 1074.951 141.043 C 1071.598 135.243 1069.921 128.443 1069.921 120.643 C 1069.921 113.243 1071.494 106.62 1074.641 100.773 C 1077.794 94.92 1082.194 90.37 1087.841 87.123 C 1093.494 83.87 1099.871 82.243 1106.971 82.243 C 1117.571 82.243 1125.971 85.62 1132.171 92.373 C 1138.371 99.12 1141.471 108.343 1141.471 120.043 Z M 1107.721 100.243 C 1100.621 100.243 1096.571 104.643 1095.571 113.443 L 1119.121 113.443 C 1118.521 104.643 1114.721 100.243 1107.721 100.243 ZM 1270.921 157.843 L 1198.321 157.843 L 1198.321 52.093 L 1225.921 52.093 L 1225.921 135.493 L 1270.921 135.493 L 1270.921 157.843 ZM 1356.721 157.843 L 1284.121 157.843 L 1284.121 52.093 L 1311.721 52.093 L 1311.721 135.493 L 1356.721 135.493 L 1356.721 157.843 ZM 1415.071 159.193 C 1404.071 159.193 1394.495 156.943 1386.341 152.443 C 1378.194 147.943 1371.944 141.593 1367.591 133.393 C 1363.245 125.193 1361.071 115.693 1361.071 104.893 C 1361.071 94.093 1363.245 84.616 1367.591 76.463 C 1371.944 68.316 1378.194 61.993 1386.341 57.493 C 1394.495 52.993 1404.071 50.743 1415.071 50.743 C 1421.971 50.743 1428.645 51.793 1435.091 53.893 C 1441.544 55.993 1446.821 58.793 1450.921 62.293 L 1442.371 81.793 C 1433.671 75.693 1424.771 72.643 1415.671 72.643 C 1407.071 72.643 1400.495 75.343 1395.941 80.743 C 1391.395 86.143 1389.121 94.193 1389.121 104.893 C 1389.121 115.593 1391.395 123.67 1395.941 129.123 C 1400.495 134.57 1407.071 137.293 1415.671 137.293 C 1424.771 137.293 1433.671 134.243 1442.371 128.143 L 1450.921 147.643 C 1446.821 151.143 1441.544 153.943 1435.091 156.043 C 1428.645 158.143 1421.971 159.193 1415.071 159.193 Z" transform="matrix(1, 0, 0, 1, 0, 0)" style="fill: rgb(255, 68, 0); white-space: pre;"/>
</svg>