<?xml version="1.0" encoding="utf-8"?>
<svg viewBox="85.47100067138672 -110.70099639892578 1365.449951171875 269.8940124511719" xmlns="http://www.w3.org/2000/svg">
  <path d="M 132.271 159.193 C 116.971 159.193 105.348 149.799 97.401 131.011 C 89.448 112.223 85.471 84.765 85.471 48.635 L 85.471 -98.777 L 112.471 -98.777 L 112.471 51.164 C 112.471 69.47 114.171 83.561 117.571 93.436 C 120.971 103.311 125.871 108.249 132.271 108.249 C 138.671 108.249 143.571 103.311 146.971 93.436 C 150.371 83.561 152.071 69.47 152.071 51.164 L 152.071 -98.777 L 179.221 -98.777 L 179.221 48.635 C 179.221 84.524 175.194 111.927 167.141 130.843 C 159.094 149.744 147.471 159.193 132.271 159.193 Z M 245.671 -26.155 C 254.471 -26.155 261.021 -19.828 265.321 -7.174 C 269.621 5.463 271.771 24.668 271.771 50.441 L 271.771 155.941 L 245.071 155.941 L 245.071 53.331 C 245.071 42.733 244.294 35.026 242.741 30.208 C 241.194 25.391 238.871 22.982 235.771 22.982 C 231.771 22.982 228.594 26.048 226.241 32.184 C 223.894 38.332 222.721 46.587 222.721 56.944 L 222.721 155.941 L 196.021 155.941 L 196.021 -21.82 L 221.971 -21.82 L 221.971 2.026 C 224.571 -7.127 227.921 -14.112 232.021 -18.929 C 236.121 -23.747 240.671 -26.155 245.671 -26.155 Z M 313.471 155.941 L 286.771 155.941 L 286.771 -21.82 L 313.471 -21.82 L 313.471 155.941 Z M 286.171 -52.53 L 286.171 -110.701 L 314.071 -110.701 L 314.071 -52.53 L 286.171 -52.53 Z M 407.071 -21.82 L 377.521 64.171 L 408.871 155.941 L 377.671 155.941 L 362.221 108.972 L 346.771 155.941 L 315.721 155.941 L 347.071 64.171 L 317.521 -21.82 L 348.871 -21.82 L 362.221 20.091 L 375.721 -21.82 L 407.071 -21.82 Z M 563.821 155.941 L 536.521 155.941 L 527.071 103.191 L 480.271 103.191 L 470.821 155.941 L 443.071 155.941 L 492.421 -98.777 L 514.321 -98.777 L 563.821 155.941 Z M 503.671 -28.323 L 489.121 53.331 L 518.221 53.331 L 503.671 -28.323 Z M 617.971 -26.155 C 626.771 -26.155 633.321 -19.828 637.621 -7.174 C 641.921 5.463 644.071 24.668 644.071 50.441 L 644.071 155.941 L 617.371 155.941 L 617.371 53.331 C 617.371 42.733 616.594 35.026 615.041 30.208 C 613.494 25.391 611.171 22.982 608.071 22.982 C 604.071 22.982 600.894 26.048 598.541 32.184 C 596.194 38.332 595.021 46.587 595.021 56.944 L 595.021 155.941 L 568.321 155.941 L 568.321 -21.82 L 594.271 -21.82 L 594.271 2.026 C 596.871 -7.127 600.221 -14.112 604.321 -18.929 C 608.421 -23.747 612.971 -26.155 617.971 -26.155 Z M 710.521 -98.777 L 737.221 -98.777 L 737.221 155.941 L 710.971 155.941 L 710.971 131.734 C 708.871 140.165 705.798 146.789 701.751 151.605 C 697.698 156.423 693.221 158.831 688.321 158.831 C 682.021 158.831 676.398 154.922 671.451 147.102 C 666.498 139.266 662.621 128.241 659.821 114.03 C 657.021 99.819 655.621 83.561 655.621 65.254 C 655.621 46.948 656.994 30.875 659.741 17.032 C 662.494 3.176 666.344 -7.489 671.291 -14.955 C 676.244 -22.422 681.921 -26.155 688.321 -26.155 C 693.021 -26.155 697.344 -23.867 701.291 -19.291 C 705.244 -14.714 708.321 -8.572 710.521 -0.864 L 710.521 -98.777 Z M 696.421 110.779 C 701.121 110.779 704.721 106.925 707.221 99.217 C 709.721 91.509 710.971 80.429 710.971 65.976 C 710.971 51.765 709.721 40.871 707.221 33.291 C 704.721 25.697 701.121 21.898 696.421 21.898 C 691.821 21.898 688.271 25.632 685.771 33.099 C 683.271 40.565 682.021 51.284 682.021 65.254 C 682.021 79.707 683.294 90.907 685.841 98.855 C 688.394 106.804 691.921 110.779 696.421 110.779 Z M 851.371 46.106 L 883.021 -98.777 L 904.321 -98.777 L 904.321 155.941 L 880.321 155.941 L 880.321 22.26 L 859.921 113.668 L 842.221 113.668 L 821.971 24.427 L 821.821 155.941 L 797.821 155.941 L 797.821 -98.777 L 819.571 -98.777 L 851.371 46.106 Z M 959.221 158.831 C 951.121 158.831 943.998 155.043 937.851 147.462 C 931.698 139.868 926.948 129.084 923.601 115.114 C 920.248 101.144 918.571 84.765 918.571 65.976 C 918.571 47.189 920.248 30.875 923.601 17.032 C 926.948 3.176 931.671 -7.489 937.771 -14.955 C 943.871 -22.422 951.021 -26.155 959.221 -26.155 C 967.421 -26.155 974.571 -22.422 980.671 -14.955 C 986.771 -7.489 991.498 3.176 994.851 17.032 C 998.198 30.875 999.871 47.189 999.871 65.976 C 999.871 84.765 998.198 101.144 994.851 115.114 C 991.498 129.084 986.771 139.868 980.671 147.462 C 974.571 155.043 967.421 158.831 959.221 158.831 Z M 959.221 110.779 C 968.721 110.779 973.471 95.845 973.471 65.976 C 973.471 36.109 968.721 21.175 959.221 21.175 C 949.721 21.175 944.971 36.109 944.971 65.976 C 944.971 95.845 949.721 110.779 959.221 110.779 Z M 1067.371 -26.877 L 1068.871 26.234 L 1054.321 29.846 C 1048.521 31.292 1044.471 35.026 1042.171 41.047 C 1039.871 47.069 1038.721 55.619 1038.721 66.7 L 1038.721 155.941 L 1012.021 155.941 L 1012.021 -21.82 L 1037.371 -21.82 L 1037.371 8.891 C 1039.071 -1.948 1041.871 -10.202 1045.771 -15.87 C 1049.671 -21.524 1054.421 -24.71 1060.021 -25.432 L 1067.371 -26.877 Z M 1141.471 64.893 L 1141.471 79.345 L 1095.871 79.345 C 1096.671 90.907 1098.421 99.217 1101.121 104.275 C 1103.821 109.334 1107.671 111.863 1112.671 111.863 C 1116.271 111.863 1119.921 110.417 1123.621 107.527 C 1127.321 104.636 1130.621 100.662 1133.521 95.603 L 1140.271 137.876 C 1136.571 144.38 1132.121 149.493 1126.921 153.219 C 1121.721 156.96 1116.521 158.831 1111.321 158.831 C 1102.821 158.831 1095.471 155.099 1089.271 147.631 C 1083.071 140.165 1078.298 129.446 1074.951 115.475 C 1071.598 101.504 1069.921 85.126 1069.921 66.338 C 1069.921 48.514 1071.494 32.561 1074.641 18.477 C 1077.794 4.38 1082.194 -6.579 1087.841 -14.4 C 1093.494 -22.237 1099.871 -26.155 1106.971 -26.155 C 1117.571 -26.155 1125.971 -18.021 1132.171 -1.755 C 1138.371 14.496 1141.471 36.711 1141.471 64.893 Z M 1107.721 17.201 C 1100.621 17.201 1096.571 27.799 1095.571 48.996 L 1119.121 48.996 C 1118.521 27.799 1114.721 17.201 1107.721 17.201 Z M 1270.921 155.941 L 1198.321 155.941 L 1198.321 -98.777 L 1225.921 -98.777 L 1225.921 102.108 L 1270.921 102.108 L 1270.921 155.941 Z M 1356.721 155.941 L 1284.121 155.941 L 1284.121 -98.777 L 1311.721 -98.777 L 1311.721 102.108 L 1356.721 102.108 L 1356.721 155.941 Z M 1415.071 159.193 C 1404.071 159.193 1394.495 153.774 1386.341 142.935 C 1378.194 132.095 1371.944 116.8 1367.591 97.049 C 1363.245 77.298 1361.071 54.416 1361.071 28.401 C 1361.071 2.388 1363.245 -20.439 1367.591 -40.078 C 1371.944 -59.701 1378.194 -74.931 1386.341 -85.77 C 1394.495 -96.61 1404.071 -102.029 1415.071 -102.029 C 1421.971 -102.029 1428.645 -99.5 1435.091 -94.441 C 1441.544 -89.383 1446.821 -82.639 1450.921 -74.209 L 1442.371 -27.239 C 1433.671 -41.932 1424.771 -49.278 1415.671 -49.278 C 1407.071 -49.278 1400.495 -42.775 1395.941 -29.768 C 1391.395 -16.762 1389.121 2.628 1389.121 28.401 C 1389.121 54.174 1391.395 73.629 1395.941 86.764 C 1400.495 99.884 1407.071 106.443 1415.671 106.443 C 1424.771 106.443 1433.671 99.097 1442.371 84.403 L 1450.921 131.373 C 1446.821 139.803 1441.544 146.547 1435.091 151.605 C 1428.645 156.664 1421.971 159.193 1415.071 159.193 Z" style="fill: rgb(255, 68, 0); white-space: pre;"/>
</svg>