<?xml version="1.0" encoding="utf-8"?>
<svg viewBox="17.125 289.5419921875 864.927978515625 114.95700073242188" xmlns="http://www.w3.org/2000/svg">
  <path d="M 19.415 245.778 C 17.715 245.778 16.455 245.298 15.635 244.338 C 14.808 243.378 14.395 241.955 14.395 240.068 L 14.395 224.968 L 18.405 224.968 L 18.405 239.898 C 18.405 240.558 18.468 241.071 18.595 241.438 C 18.722 241.805 18.995 241.988 19.415 241.988 C 19.828 241.988 20.098 241.808 20.225 241.448 C 20.358 241.088 20.425 240.571 20.425 239.898 L 20.425 224.968 L 24.425 224.968 L 24.425 240.068 C 24.425 241.955 24.015 243.378 23.195 244.338 C 22.368 245.298 21.108 245.778 19.415 245.778 ZM 25.941 245.588 L 25.941 228.018 L 30.141 228.018 L 30.141 230.248 C 30.314 229.528 30.617 228.945 31.051 228.498 C 31.484 228.051 32.061 227.828 32.781 227.828 C 33.967 227.828 34.844 228.191 35.411 228.918 C 35.977 229.645 36.261 230.681 36.261 232.028 L 36.261 245.588 L 32.131 245.588 L 32.131 232.458 C 32.131 232.078 32.054 231.751 31.901 231.478 C 31.754 231.205 31.521 231.068 31.201 231.068 C 30.767 231.068 30.481 231.265 30.341 231.658 C 30.207 232.051 30.141 232.575 30.141 233.228 L 30.141 245.588 L 25.941 245.588 ZM 42.096 226.848 L 37.896 226.848 L 37.896 223.918 L 42.096 223.918 L 42.096 226.848 Z M 42.096 245.588 L 37.896 245.588 L 37.896 228.018 L 42.096 228.018 L 42.096 245.588 ZM 50.658 236.688 L 53.828 245.588 L 49.628 245.588 L 47.848 240.648 L 46.168 245.588 L 43.008 245.588 L 46.218 236.158 L 43.288 227.998 L 47.568 227.998 L 49.078 232.268 L 50.568 227.998 L 53.688 227.998 L 50.658 236.688 ZM 63.91 245.588 L 59.9 245.588 L 61.89 224.968 L 68.88 224.968 L 70.84 245.588 L 66.93 245.588 L 66.64 242.248 L 64.15 242.248 L 63.91 245.588 Z M 65.23 228.478 L 64.46 238.968 L 66.33 238.968 L 65.42 228.478 L 65.23 228.478 ZM 72.019 245.588 L 72.019 228.018 L 76.219 228.018 L 76.219 230.248 C 76.393 229.528 76.696 228.945 77.129 228.498 C 77.563 228.051 78.139 227.828 78.859 227.828 C 80.046 227.828 80.923 228.191 81.489 228.918 C 82.056 229.645 82.339 230.681 82.339 232.028 L 82.339 245.588 L 78.209 245.588 L 78.209 232.458 C 78.209 232.078 78.133 231.751 77.979 231.478 C 77.833 231.205 77.599 231.068 77.279 231.068 C 76.846 231.068 76.559 231.265 76.419 231.658 C 76.286 232.051 76.219 232.575 76.219 233.228 L 76.219 245.588 L 72.019 245.588 ZM 87.455 245.778 C 86.428 245.778 85.655 245.535 85.135 245.048 C 84.615 244.561 84.272 243.915 84.105 243.108 C 83.938 242.295 83.855 241.258 83.855 239.998 L 83.895 232.078 C 83.895 230.831 84.212 229.811 84.845 229.018 C 85.478 228.225 86.372 227.828 87.525 227.828 C 88.658 227.828 89.505 228.205 90.065 228.958 L 90.065 224.848 L 94.265 224.848 L 94.265 245.588 L 90.065 245.588 L 90.065 243.718 C 89.825 244.405 89.502 244.921 89.095 245.268 C 88.688 245.608 88.142 245.778 87.455 245.778 Z M 89.055 242.488 C 89.475 242.488 89.748 242.285 89.875 241.878 C 90.002 241.471 90.065 240.925 90.065 240.238 L 90.065 239.488 L 90.065 232.888 C 90.065 232.381 89.995 231.951 89.855 231.598 C 89.708 231.245 89.452 231.068 89.085 231.068 C 88.665 231.068 88.388 231.231 88.255 231.558 C 88.122 231.885 88.055 232.328 88.055 232.888 L 88.055 240.288 C 88.055 241.755 88.388 242.488 89.055 242.488 ZM 105.352 245.588 L 101.632 245.588 L 101.632 224.968 L 107.922 224.968 L 109.652 237.548 L 111.382 224.968 L 117.712 224.968 L 117.712 245.588 L 113.942 245.588 L 113.942 230.728 L 111.572 245.588 L 107.872 245.588 L 105.352 230.728 L 105.352 245.588 ZM 124.576 245.778 C 121.076 245.778 119.326 243.961 119.326 240.328 L 119.326 233.278 C 119.326 231.611 119.793 230.288 120.726 229.308 C 121.659 228.321 122.943 227.828 124.576 227.828 C 126.209 227.828 127.493 228.321 128.426 229.308 C 129.366 230.288 129.836 231.611 129.836 233.278 L 129.836 240.328 C 129.836 243.961 128.083 245.778 124.576 245.778 Z M 124.576 242.538 C 124.916 242.538 125.166 242.418 125.326 242.178 C 125.486 241.938 125.566 241.611 125.566 241.198 L 125.566 232.608 C 125.566 231.581 125.236 231.068 124.576 231.068 C 123.923 231.068 123.596 231.581 123.596 232.608 L 123.596 241.198 C 123.596 241.611 123.676 241.938 123.836 242.178 C 123.996 242.418 124.243 242.538 124.576 242.538 ZM 131.394 245.588 L 131.394 228.018 L 135.594 228.018 L 135.594 229.968 C 135.8 229.275 136.164 228.741 136.684 228.368 C 137.204 227.995 137.847 227.808 138.614 227.808 L 138.614 231.308 C 138.027 231.308 137.377 231.391 136.664 231.558 C 135.95 231.725 135.594 231.921 135.594 232.148 L 135.594 245.588 L 131.394 245.588 ZM 144.569 245.778 C 142.763 245.778 141.466 245.281 140.679 244.288 C 139.899 243.301 139.509 241.821 139.509 239.848 L 139.509 232.798 C 139.509 231.178 139.973 229.945 140.899 229.098 C 141.826 228.251 143.123 227.828 144.789 227.828 C 148.163 227.828 149.849 229.485 149.849 232.798 L 149.849 234.068 C 149.849 235.348 149.833 236.388 149.799 237.188 L 143.709 237.188 L 143.709 240.598 C 143.709 241.205 143.773 241.681 143.899 242.028 C 144.026 242.368 144.296 242.538 144.709 242.538 C 145.029 242.538 145.259 242.441 145.399 242.248 C 145.533 242.061 145.613 241.841 145.639 241.588 C 145.659 241.341 145.669 240.978 145.669 240.498 L 145.669 238.798 L 149.849 238.798 L 149.849 239.808 C 149.849 241.855 149.453 243.361 148.659 244.328 C 147.866 245.295 146.503 245.778 144.569 245.778 Z M 143.679 235.098 L 145.669 235.098 L 145.669 232.848 C 145.669 231.581 145.359 230.948 144.739 230.948 C 144.033 230.948 143.679 231.581 143.679 232.848 L 143.679 235.098 ZM 165.427 245.588 L 157.047 245.588 L 157.047 224.968 L 161.177 224.968 L 161.177 242.088 L 165.427 242.088 L 165.427 245.588 ZM 174.954 245.588 L 166.574 245.588 L 166.574 224.968 L 170.704 224.968 L 170.704 242.088 L 174.954 242.088 L 174.954 245.588 ZM 180.902 245.778 C 179.402 245.778 178.199 245.308 177.292 244.368 C 176.386 243.421 175.932 242.125 175.932 240.478 L 175.932 230.968 C 175.932 228.921 176.342 227.378 177.162 226.338 C 177.976 225.298 179.256 224.778 181.002 224.778 C 182.522 224.778 183.746 225.195 184.672 226.028 C 185.599 226.861 186.062 228.061 186.062 229.628 L 186.062 233.178 L 181.962 233.178 L 181.962 230.128 C 181.962 229.541 181.889 229.135 181.742 228.908 C 181.602 228.681 181.356 228.568 181.002 228.568 C 180.636 228.568 180.382 228.698 180.242 228.958 C 180.109 229.211 180.042 229.588 180.042 230.088 L 180.042 240.428 C 180.042 240.975 180.122 241.371 180.282 241.618 C 180.442 241.865 180.682 241.988 181.002 241.988 C 181.642 241.988 181.962 241.468 181.962 240.428 L 181.962 236.708 L 186.112 236.708 L 186.112 240.598 C 186.112 244.051 184.376 245.778 180.902 245.778 Z" transform="matrix(5.036938190460205, 0, 0, 5.2587738037109375, -55.38173294067383, -887.9925537109375)" style="fill: rgb(242, 11, 11); white-space: pre;"/>
</svg>