<?xml version="1.0" encoding="utf-8"?>
<svg viewBox="63.542999267578125 66.7509994506836 1412.699951171875 137.6999969482422" xmlns="http://www.w3.org/2000/svg">
  <path d="M 105.693 178.801 C 97.793 178.801 89.993 177.751 82.293 175.651 C 74.593 173.551 68.343 170.751 63.543 167.251 L 72.093 147.751 C 77.193 150.951 82.643 153.401 88.443 155.101 C 94.243 156.801 100.093 157.651 105.993 157.651 C 111.993 157.651 116.57 156.828 119.723 155.181 C 122.87 153.528 124.443 151.201 124.443 148.201 C 124.443 145.501 123.016 143.301 120.163 141.601 C 117.316 139.901 111.893 138.201 103.893 136.501 C 93.993 134.401 86.243 131.901 80.643 129.001 C 75.043 126.101 71.12 122.701 68.873 118.801 C 66.62 114.901 65.493 110.101 65.493 104.401 C 65.493 97.901 67.32 92.078 70.973 86.931 C 74.62 81.778 79.766 77.728 86.413 74.781 C 93.066 71.828 100.693 70.351 109.293 70.351 C 116.893 70.351 124.27 71.424 131.423 73.571 C 138.57 75.724 144.143 78.501 148.143 81.901 L 139.743 101.401 C 130.143 94.801 120.043 91.501 109.443 91.501 C 104.343 91.501 100.243 92.478 97.143 94.431 C 94.043 96.378 92.493 98.951 92.493 102.151 C 92.493 104.051 93.043 105.601 94.143 106.801 C 95.243 108.001 97.293 109.174 100.293 110.321 C 103.293 111.474 107.743 112.651 113.643 113.851 C 123.243 115.951 130.793 118.478 136.293 121.431 C 141.793 124.378 145.693 127.801 147.993 131.701 C 150.293 135.601 151.443 140.251 151.443 145.651 C 151.443 156.051 147.443 164.178 139.443 170.031 C 131.443 175.878 120.193 178.801 105.693 178.801 ZM 196.893 145.351 L 213.993 103.801 L 240.093 103.801 L 195.093 204.451 L 168.093 204.451 L 182.943 172.351 L 152.793 103.801 L 180.693 103.801 L 196.893 145.351 ZM 273.843 178.651 C 266.743 178.651 260.193 177.901 254.193 176.401 C 248.193 174.901 243.143 172.701 239.043 169.801 L 245.793 151.651 C 249.793 154.251 254.343 156.328 259.443 157.881 C 264.543 159.428 269.443 160.201 274.143 160.201 C 277.043 160.201 279.293 159.778 280.893 158.931 C 282.493 158.078 283.293 156.901 283.293 155.401 C 283.293 154.101 282.72 153.101 281.573 152.401 C 280.42 151.701 278.093 150.951 274.593 150.151 L 262.743 147.451 C 255.243 145.751 249.843 143.251 246.543 139.951 C 243.243 136.651 241.593 131.951 241.593 125.851 C 241.593 121.151 242.993 116.974 245.793 113.321 C 248.593 109.674 252.516 106.851 257.563 104.851 C 262.616 102.851 268.343 101.851 274.743 101.851 C 280.043 101.851 285.32 102.628 290.573 104.181 C 295.82 105.728 300.593 107.901 304.893 110.701 L 297.993 128.101 C 293.993 125.601 289.966 123.674 285.913 122.321 C 281.866 120.974 278.043 120.301 274.443 120.301 C 271.543 120.301 269.293 120.751 267.693 121.651 C 266.093 122.551 265.293 123.851 265.293 125.551 C 265.293 126.551 265.793 127.378 266.793 128.031 C 267.793 128.678 269.543 129.301 272.043 129.901 L 284.493 132.751 C 292.293 134.451 297.943 137.078 301.443 140.631 C 304.943 144.178 306.693 149.001 306.693 155.101 C 306.693 162.401 303.766 168.151 297.913 172.351 C 292.066 176.551 284.043 178.651 273.843 178.651 ZM 360.993 159.451 C 363.193 159.451 365.643 159.301 368.343 159.001 L 366.993 178.051 C 363.793 178.451 360.693 178.651 357.693 178.651 C 345.693 178.651 336.97 176.124 331.523 171.071 C 326.07 166.024 323.343 158.201 323.343 147.601 L 323.343 123.301 L 309.543 123.301 L 309.543 103.651 L 323.343 103.651 L 323.343 82.201 L 350.043 82.201 L 350.043 103.651 L 367.743 103.651 L 367.743 123.301 L 350.043 123.301 L 350.043 147.751 C 350.043 155.551 353.693 159.451 360.993 159.451 ZM 445.743 139.651 L 445.743 145.651 L 400.143 145.651 C 400.943 150.451 402.693 153.901 405.393 156.001 C 408.093 158.101 411.943 159.151 416.943 159.151 C 420.543 159.151 424.193 158.551 427.893 157.351 C 431.593 156.151 434.893 154.501 437.793 152.401 L 444.543 169.951 C 440.843 172.651 436.393 174.774 431.193 176.321 C 425.993 177.874 420.793 178.651 415.593 178.651 C 407.093 178.651 399.743 177.101 393.543 174.001 C 387.343 170.901 382.57 166.451 379.223 160.651 C 375.87 154.851 374.193 148.051 374.193 140.251 C 374.193 132.851 375.766 126.228 378.913 120.381 C 382.066 114.528 386.466 109.978 392.113 106.731 C 397.766 103.478 404.143 101.851 411.243 101.851 C 421.843 101.851 430.243 105.228 436.443 111.981 C 442.643 118.728 445.743 127.951 445.743 139.651 Z M 411.993 119.851 C 404.893 119.851 400.843 124.251 399.843 133.051 L 423.393 133.051 C 422.793 124.251 418.993 119.851 411.993 119.851 ZM 552.093 101.851 C 560.693 101.851 567.07 104.451 571.223 109.651 C 575.37 114.851 577.443 122.851 577.443 133.651 L 577.443 177.451 L 550.743 177.451 L 550.743 134.401 C 550.743 130.101 550.093 127.001 548.793 125.101 C 547.493 123.201 545.343 122.251 542.343 122.251 C 538.643 122.251 535.816 123.551 533.863 126.151 C 531.916 128.751 530.943 132.451 530.943 137.251 L 530.943 177.451 L 504.243 177.451 L 504.243 134.401 C 504.243 130.101 503.593 127.001 502.293 125.101 C 500.993 123.201 498.843 122.251 495.843 122.251 C 492.143 122.251 489.343 123.551 487.443 126.151 C 485.543 128.751 484.593 132.451 484.593 137.251 L 484.593 177.451 L 457.893 177.451 L 457.893 103.651 L 483.843 103.651 L 483.843 112.951 C 488.743 105.551 496.243 101.851 506.343 101.851 C 516.943 101.851 524.093 106.201 527.793 114.901 C 530.393 110.801 533.816 107.601 538.063 105.301 C 542.316 103.001 546.993 101.851 552.093 101.851 ZM 744.993 177.451 L 717.693 177.451 L 708.243 155.551 L 661.443 155.551 L 651.993 177.451 L 624.243 177.451 L 673.593 71.701 L 695.493 71.701 L 744.993 177.451 Z M 684.843 100.951 L 670.293 134.851 L 699.393 134.851 L 684.843 100.951 ZM 797.193 103.651 L 823.893 103.651 L 823.893 177.451 L 797.943 177.451 L 797.943 167.551 C 795.643 171.151 792.72 173.901 789.173 175.801 C 785.62 177.701 781.543 178.651 776.943 178.651 C 767.443 178.651 760.393 176.028 755.793 170.781 C 751.193 165.528 748.893 157.551 748.893 146.851 L 748.893 103.651 L 775.593 103.651 L 775.593 147.451 C 775.593 154.651 778.693 158.251 784.893 158.251 C 788.493 158.251 791.443 156.951 793.743 154.351 C 796.043 151.751 797.193 148.351 797.193 144.151 L 797.193 103.651 ZM 883.593 159.451 C 885.793 159.451 888.243 159.301 890.943 159.001 L 889.593 178.051 C 886.393 178.451 883.293 178.651 880.293 178.651 C 868.293 178.651 859.57 176.124 854.123 171.071 C 848.67 166.024 845.943 158.201 845.943 147.601 L 845.943 123.301 L 832.143 123.301 L 832.143 103.651 L 845.943 103.651 L 845.943 82.201 L 872.643 82.201 L 872.643 103.651 L 890.343 103.651 L 890.343 123.301 L 872.643 123.301 L 872.643 147.751 C 872.643 155.551 876.293 159.451 883.593 159.451 ZM 937.443 178.651 C 929.343 178.651 922.22 177.078 916.073 173.931 C 909.92 170.778 905.17 166.301 901.823 160.501 C 898.47 154.701 896.793 147.901 896.793 140.101 C 896.793 132.301 898.47 125.528 901.823 119.781 C 905.17 114.028 909.893 109.601 915.993 106.501 C 922.093 103.401 929.243 101.851 937.443 101.851 C 945.643 101.851 952.793 103.401 958.893 106.501 C 964.993 109.601 969.72 114.028 973.073 119.781 C 976.42 125.528 978.093 132.301 978.093 140.101 C 978.093 147.901 976.42 154.701 973.073 160.501 C 969.72 166.301 964.993 170.778 958.893 173.931 C 952.793 177.078 945.643 178.651 937.443 178.651 Z M 937.443 158.701 C 946.943 158.701 951.693 152.501 951.693 140.101 C 951.693 127.701 946.943 121.501 937.443 121.501 C 927.943 121.501 923.193 127.701 923.193 140.101 C 923.193 152.501 927.943 158.701 937.443 158.701 ZM 1084.443 101.851 C 1093.043 101.851 1099.42 104.451 1103.573 109.651 C 1107.72 114.851 1109.793 122.851 1109.793 133.651 L 1109.793 177.451 L 1083.093 177.451 L 1083.093 134.401 C 1083.093 130.101 1082.443 127.001 1081.143 125.101 C 1079.843 123.201 1077.693 122.251 1074.693 122.251 C 1070.993 122.251 1068.166 123.551 1066.213 126.151 C 1064.266 128.751 1063.293 132.451 1063.293 137.251 L 1063.293 177.451 L 1036.593 177.451 L 1036.593 134.401 C 1036.593 130.101 1035.943 127.001 1034.643 125.101 C 1033.343 123.201 1031.193 122.251 1028.193 122.251 C 1024.493 122.251 1021.693 123.551 1019.793 126.151 C 1017.893 128.751 1016.943 132.451 1016.943 137.251 L 1016.943 177.451 L 990.243 177.451 L 990.243 103.651 L 1016.193 103.651 L 1016.193 112.951 C 1021.093 105.551 1028.593 101.851 1038.693 101.851 C 1049.293 101.851 1056.443 106.201 1060.143 114.901 C 1062.743 110.801 1066.166 107.601 1070.413 105.301 C 1074.666 103.001 1079.343 101.851 1084.443 101.851 ZM 1158.543 101.851 C 1170.143 101.851 1178.716 104.524 1184.263 109.871 C 1189.816 115.224 1192.593 123.551 1192.593 134.851 L 1192.593 177.451 L 1167.543 177.451 L 1167.543 167.101 C 1166.143 170.701 1163.793 173.524 1160.493 175.571 C 1157.193 177.624 1153.243 178.651 1148.643 178.651 C 1143.543 178.651 1138.943 177.624 1134.843 175.571 C 1130.743 173.524 1127.516 170.678 1125.163 167.031 C 1122.816 163.378 1121.643 159.251 1121.643 154.651 C 1121.643 149.351 1123.02 145.124 1125.773 141.971 C 1128.52 138.824 1132.893 136.551 1138.893 135.151 C 1144.893 133.751 1152.993 133.051 1163.193 133.051 L 1167.243 133.051 L 1167.243 131.251 C 1167.243 127.551 1166.393 124.978 1164.693 123.531 C 1162.993 122.078 1159.993 121.351 1155.693 121.351 C 1152.293 121.351 1148.37 122.028 1143.923 123.381 C 1139.47 124.728 1135.293 126.451 1131.393 128.551 L 1124.643 111.001 C 1128.943 108.401 1134.316 106.228 1140.763 104.481 C 1147.216 102.728 1153.143 101.851 1158.543 101.851 Z M 1154.943 160.801 C 1158.543 160.801 1161.493 159.528 1163.793 156.981 C 1166.093 154.428 1167.243 151.151 1167.243 147.151 L 1167.243 145.351 L 1164.843 145.351 C 1158.443 145.351 1153.893 145.924 1151.193 147.071 C 1148.493 148.224 1147.143 150.151 1147.143 152.851 C 1147.143 155.151 1147.866 157.051 1149.313 158.551 C 1150.766 160.051 1152.643 160.801 1154.943 160.801 ZM 1251.693 159.451 C 1253.893 159.451 1256.343 159.301 1259.043 159.001 L 1257.693 178.051 C 1254.493 178.451 1251.393 178.651 1248.393 178.651 C 1236.393 178.651 1227.67 176.124 1222.223 171.071 C 1216.77 166.024 1214.043 158.201 1214.043 147.601 L 1214.043 123.301 L 1200.243 123.301 L 1200.243 103.651 L 1214.043 103.651 L 1214.043 82.201 L 1240.743 82.201 L 1240.743 103.651 L 1258.443 103.651 L 1258.443 123.301 L 1240.743 123.301 L 1240.743 147.751 C 1240.743 155.551 1244.393 159.451 1251.693 159.451 ZM 1295.043 177.451 L 1268.343 177.451 L 1268.343 103.651 L 1295.043 103.651 L 1295.043 177.451 Z M 1267.743 90.901 L 1267.743 66.751 L 1295.643 66.751 L 1295.643 90.901 L 1267.743 90.901 ZM 1347.693 178.651 C 1339.593 178.651 1332.47 177.078 1326.323 173.931 C 1320.17 170.778 1315.42 166.301 1312.073 160.501 C 1308.72 154.701 1307.043 147.901 1307.043 140.101 C 1307.043 132.301 1308.72 125.528 1312.073 119.781 C 1315.42 114.028 1320.143 109.601 1326.243 106.501 C 1332.343 103.401 1339.493 101.851 1347.693 101.851 C 1355.893 101.851 1363.043 103.401 1369.143 106.501 C 1375.243 109.601 1379.97 114.028 1383.323 119.781 C 1386.67 125.528 1388.343 132.301 1388.343 140.101 C 1388.343 147.901 1386.67 154.701 1383.323 160.501 C 1379.97 166.301 1375.243 170.778 1369.143 173.931 C 1363.043 177.078 1355.893 178.651 1347.693 178.651 Z M 1347.693 158.701 C 1357.193 158.701 1361.943 152.501 1361.943 140.101 C 1361.943 127.701 1357.193 121.501 1347.693 121.501 C 1338.193 121.501 1333.443 127.701 1333.443 140.101 C 1333.443 152.501 1338.193 158.701 1347.693 158.701 ZM 1450.143 101.851 C 1458.943 101.851 1465.493 104.478 1469.793 109.731 C 1474.093 114.978 1476.243 122.951 1476.243 133.651 L 1476.243 177.451 L 1449.543 177.451 L 1449.543 134.851 C 1449.543 130.451 1448.766 127.251 1447.213 125.251 C 1445.667 123.251 1443.343 122.251 1440.243 122.251 C 1436.243 122.251 1433.066 123.524 1430.713 126.071 C 1428.366 128.624 1427.193 132.051 1427.193 136.351 L 1427.193 177.451 L 1400.493 177.451 L 1400.493 103.651 L 1426.443 103.651 L 1426.443 113.551 C 1429.043 109.751 1432.393 106.851 1436.493 104.851 C 1440.593 102.851 1445.143 101.851 1450.143 101.851 Z" transform="matrix(1, 0, 0, 1, 0, 0)" style="fill: rgb(255, 68, 0); white-space: pre;"/>
</svg>