<?xml version="1.0" encoding="utf-8"?>
<svg viewBox="249.5 -80.875 1723.6409912109375 204.406005859375" xmlns="http://www.w3.org/2000/svg">
  <path d="M 297.36 71.938 C 289.46 71.938 281.66 70.888 273.96 68.788 C 266.26 66.688 260.01 63.888 255.21 60.388 L 263.76 40.888 C 268.86 44.088 274.31 46.538 280.11 48.238 C 285.91 49.938 291.76 50.788 297.66 50.788 C 303.66 50.788 308.237 49.965 311.39 48.318 C 314.537 46.665 316.11 44.338 316.11 41.338 C 316.11 38.638 314.683 36.438 311.83 34.738 C 308.983 33.038 303.56 31.338 295.56 29.638 C 285.66 27.538 277.91 25.038 272.31 22.138 C 266.71 19.238 262.787 15.838 260.54 11.938 C 258.287 8.038 257.16 3.238 257.16 -2.462 C 257.16 -8.962 258.987 -14.785 262.64 -19.932 C 266.287 -25.085 271.433 -29.135 278.08 -32.082 C 284.733 -35.035 292.36 -36.512 300.96 -36.512 C 308.56 -36.512 315.937 -35.439 323.09 -33.292 C 330.237 -31.139 335.81 -28.362 339.81 -24.962 L 331.41 -5.462 C 321.81 -12.062 311.71 -15.362 301.11 -15.362 C 296.01 -15.362 291.91 -14.385 288.81 -12.432 C 285.71 -10.485 284.16 -7.912 284.16 -4.712 C 284.16 -2.812 284.71 -1.262 285.81 -0.062 C 286.91 1.138 288.96 2.311 291.96 3.458 C 294.96 4.611 299.41 5.788 305.31 6.988 C 314.91 9.088 322.46 11.615 327.96 14.568 C 333.46 17.515 337.36 20.938 339.66 24.838 C 341.96 28.738 343.11 33.388 343.11 38.788 C 343.11 49.188 339.11 57.315 331.11 63.168 C 323.11 69.015 311.86 71.938 297.36 71.938 ZM 388.56 38.488 L 405.66 -3.062 L 431.76 -3.062 L 386.76 97.588 L 359.76 97.588 L 374.61 65.488 L 344.46 -3.062 L 372.36 -3.062 L 388.56 38.488 ZM 465.51 71.788 C 458.41 71.788 451.86 71.038 445.86 69.538 C 439.86 68.038 434.81 65.838 430.71 62.938 L 437.46 44.788 C 441.46 47.388 446.01 49.465 451.11 51.018 C 456.21 52.565 461.11 53.338 465.81 53.338 C 468.71 53.338 470.96 52.915 472.56 52.068 C 474.16 51.215 474.96 50.038 474.96 48.538 C 474.96 47.238 474.387 46.238 473.24 45.538 C 472.087 44.838 469.76 44.088 466.26 43.288 L 454.41 40.588 C 446.91 38.888 441.51 36.388 438.21 33.088 C 434.91 29.788 433.26 25.088 433.26 18.988 C 433.26 14.288 434.66 10.111 437.46 6.458 C 440.26 2.811 444.183 -0.012 449.23 -2.012 C 454.283 -4.012 460.01 -5.012 466.41 -5.012 C 471.71 -5.012 476.987 -4.235 482.24 -2.682 C 487.487 -1.135 492.26 1.038 496.56 3.838 L 489.66 21.238 C 485.66 18.738 481.633 16.811 477.58 15.458 C 473.533 14.111 469.71 13.438 466.11 13.438 C 463.21 13.438 460.96 13.888 459.36 14.788 C 457.76 15.688 456.96 16.988 456.96 18.688 C 456.96 19.688 457.46 20.515 458.46 21.168 C 459.46 21.815 461.21 22.438 463.71 23.038 L 476.16 25.888 C 483.96 27.588 489.61 30.215 493.11 33.768 C 496.61 37.315 498.36 42.138 498.36 48.238 C 498.36 55.538 495.433 61.288 489.58 65.488 C 483.733 69.688 475.71 71.788 465.51 71.788 ZM 552.66 52.588 C 554.86 52.588 557.31 52.438 560.01 52.138 L 558.66 71.188 C 555.46 71.588 552.36 71.788 549.36 71.788 C 537.36 71.788 528.637 69.261 523.19 64.208 C 517.737 59.161 515.01 51.338 515.01 40.738 L 515.01 16.438 L 501.21 16.438 L 501.21 -3.212 L 515.01 -3.212 L 515.01 -24.662 L 541.71 -24.662 L 541.71 -3.212 L 559.41 -3.212 L 559.41 16.438 L 541.71 16.438 L 541.71 40.888 C 541.71 48.688 545.36 52.588 552.66 52.588 ZM 637.41 32.788 L 637.41 38.788 L 591.81 38.788 C 592.61 43.588 594.36 47.038 597.06 49.138 C 599.76 51.238 603.61 52.288 608.61 52.288 C 612.21 52.288 615.86 51.688 619.56 50.488 C 623.26 49.288 626.56 47.638 629.46 45.538 L 636.21 63.088 C 632.51 65.788 628.06 67.911 622.86 69.458 C 617.66 71.011 612.46 71.788 607.26 71.788 C 598.76 71.788 591.41 70.238 585.21 67.138 C 579.01 64.038 574.237 59.588 570.89 53.788 C 567.537 47.988 565.86 41.188 565.86 33.388 C 565.86 25.988 567.433 19.365 570.58 13.518 C 573.733 7.665 578.133 3.115 583.78 -0.132 C 589.433 -3.385 595.81 -5.012 602.91 -5.012 C 613.51 -5.012 621.91 -1.635 628.11 5.118 C 634.31 11.865 637.41 21.088 637.41 32.788 Z M 603.66 12.988 C 596.56 12.988 592.51 17.388 591.51 26.188 L 615.06 26.188 C 614.46 17.388 610.66 12.988 603.66 12.988 ZM 743.76 -5.012 C 752.36 -5.012 758.737 -2.412 762.89 2.788 C 767.037 7.988 769.11 15.988 769.11 26.788 L 769.11 70.588 L 742.41 70.588 L 742.41 27.538 C 742.41 23.238 741.76 20.138 740.46 18.238 C 739.16 16.338 737.01 15.388 734.01 15.388 C 730.31 15.388 727.483 16.688 725.53 19.288 C 723.583 21.888 722.61 25.588 722.61 30.388 L 722.61 70.588 L 695.91 70.588 L 695.91 27.538 C 695.91 23.238 695.26 20.138 693.96 18.238 C 692.66 16.338 690.51 15.388 687.51 15.388 C 683.81 15.388 681.01 16.688 679.11 19.288 C 677.21 21.888 676.26 25.588 676.26 30.388 L 676.26 70.588 L 649.56 70.588 L 649.56 -3.212 L 675.51 -3.212 L 675.51 6.088 C 680.41 -1.312 687.91 -5.012 698.01 -5.012 C 708.61 -5.012 715.76 -0.662 719.46 8.038 C 722.06 3.938 725.483 0.738 729.73 -1.562 C 733.983 -3.862 738.66 -5.012 743.76 -5.012 ZM 813.81 71.788 C 806.71 71.788 800.16 71.038 794.16 69.538 C 788.16 68.038 783.11 65.838 779.01 62.938 L 785.76 44.788 C 789.76 47.388 794.31 49.465 799.41 51.018 C 804.51 52.565 809.41 53.338 814.11 53.338 C 817.01 53.338 819.26 52.915 820.86 52.068 C 822.46 51.215 823.26 50.038 823.26 48.538 C 823.26 47.238 822.687 46.238 821.54 45.538 C 820.387 44.838 818.06 44.088 814.56 43.288 L 802.71 40.588 C 795.21 38.888 789.81 36.388 786.51 33.088 C 783.21 29.788 781.56 25.088 781.56 18.988 C 781.56 14.288 782.96 10.111 785.76 6.458 C 788.56 2.811 792.483 -0.012 797.53 -2.012 C 802.583 -4.012 808.31 -5.012 814.71 -5.012 C 820.01 -5.012 825.287 -4.235 830.54 -2.682 C 835.787 -1.135 840.56 1.038 844.86 3.838 L 837.96 21.238 C 833.96 18.738 829.933 16.811 825.88 15.458 C 821.833 14.111 818.01 13.438 814.41 13.438 C 811.51 13.438 809.26 13.888 807.66 14.788 C 806.06 15.688 805.26 16.988 805.26 18.688 C 805.26 19.688 805.76 20.515 806.76 21.168 C 807.76 21.815 809.51 22.438 812.01 23.038 L 824.46 25.888 C 832.26 27.588 837.91 30.215 841.41 33.768 C 844.91 37.315 846.66 42.138 846.66 48.238 C 846.66 55.538 843.733 61.288 837.88 65.488 C 832.033 69.688 824.01 71.788 813.81 71.788 ZM 1010.16 70.588 L 982.86 70.588 L 973.41 48.688 L 926.61 48.688 L 917.16 70.588 L 889.41 70.588 L 938.76 -35.162 L 960.66 -35.162 L 1010.16 70.588 Z M 950.01 -5.912 L 935.46 27.988 L 964.56 27.988 L 950.01 -5.912 ZM 1066.11 -35.162 L 1092.81 -35.162 L 1092.81 70.588 L 1066.56 70.588 L 1066.56 60.538 C 1064.46 64.038 1061.387 66.788 1057.34 68.788 C 1053.287 70.788 1048.81 71.788 1043.91 71.788 C 1037.61 71.788 1031.987 70.165 1027.04 66.918 C 1022.087 63.665 1018.21 59.088 1015.41 53.188 C 1012.61 47.288 1011.21 40.538 1011.21 32.938 C 1011.21 25.338 1012.583 18.665 1015.33 12.918 C 1018.083 7.165 1021.933 2.738 1026.88 -0.362 C 1031.833 -3.462 1037.51 -5.012 1043.91 -5.012 C 1048.61 -5.012 1052.933 -4.062 1056.88 -2.162 C 1060.833 -0.262 1063.91 2.288 1066.11 5.488 L 1066.11 -35.162 Z M 1052.01 51.838 C 1056.71 51.838 1060.31 50.238 1062.81 47.038 C 1065.31 43.838 1066.56 39.238 1066.56 33.238 C 1066.56 27.338 1065.31 22.815 1062.81 19.668 C 1060.31 16.515 1056.71 14.938 1052.01 14.938 C 1047.41 14.938 1043.86 16.488 1041.36 19.588 C 1038.86 22.688 1037.61 27.138 1037.61 32.938 C 1037.61 38.938 1038.883 43.588 1041.43 46.888 C 1043.983 50.188 1047.51 51.838 1052.01 51.838 ZM 1202.61 -5.012 C 1211.21 -5.012 1217.587 -2.412 1221.74 2.788 C 1225.887 7.988 1227.96 15.988 1227.96 26.788 L 1227.96 70.588 L 1201.26 70.588 L 1201.26 27.538 C 1201.26 23.238 1200.61 20.138 1199.31 18.238 C 1198.01 16.338 1195.86 15.388 1192.86 15.388 C 1189.16 15.388 1186.333 16.688 1184.38 19.288 C 1182.433 21.888 1181.46 25.588 1181.46 30.388 L 1181.46 70.588 L 1154.76 70.588 L 1154.76 27.538 C 1154.76 23.238 1154.11 20.138 1152.81 18.238 C 1151.51 16.338 1149.36 15.388 1146.36 15.388 C 1142.66 15.388 1139.86 16.688 1137.96 19.288 C 1136.06 21.888 1135.11 25.588 1135.11 30.388 L 1135.11 70.588 L 1108.41 70.588 L 1108.41 -3.212 L 1134.36 -3.212 L 1134.36 6.088 C 1139.26 -1.312 1146.76 -5.012 1156.86 -5.012 C 1167.46 -5.012 1174.61 -0.662 1178.31 8.038 C 1180.91 3.938 1184.333 0.738 1188.58 -1.562 C 1192.833 -3.862 1197.51 -5.012 1202.61 -5.012 ZM 1269.66 70.588 L 1242.96 70.588 L 1242.96 -3.212 L 1269.66 -3.212 L 1269.66 70.588 Z M 1242.36 -15.962 L 1242.36 -40.112 L 1270.26 -40.112 L 1270.26 -15.962 L 1242.36 -15.962 ZM 1334.76 -5.012 C 1343.56 -5.012 1350.11 -2.385 1354.41 2.868 C 1358.71 8.115 1360.86 16.088 1360.86 26.788 L 1360.86 70.588 L 1334.16 70.588 L 1334.16 27.988 C 1334.16 23.588 1333.384 20.388 1331.83 18.388 C 1330.284 16.388 1327.96 15.388 1324.86 15.388 C 1320.86 15.388 1317.683 16.661 1315.33 19.208 C 1312.984 21.761 1311.81 25.188 1311.81 29.488 L 1311.81 70.588 L 1285.11 70.588 L 1285.11 -3.212 L 1311.06 -3.212 L 1311.06 6.688 C 1313.66 2.888 1317.01 -0.012 1321.11 -2.012 C 1325.21 -4.012 1329.76 -5.012 1334.76 -5.012 ZM 1402.56 70.588 L 1375.86 70.588 L 1375.86 -3.212 L 1402.56 -3.212 L 1402.56 70.588 Z M 1375.26 -15.962 L 1375.26 -40.112 L 1403.16 -40.112 L 1403.16 -15.962 L 1375.26 -15.962 ZM 1447.71 71.788 C 1440.61 71.788 1434.06 71.038 1428.06 69.538 C 1422.06 68.038 1417.01 65.838 1412.91 62.938 L 1419.66 44.788 C 1423.66 47.388 1428.21 49.465 1433.31 51.018 C 1438.41 52.565 1443.31 53.338 1448.01 53.338 C 1450.91 53.338 1453.16 52.915 1454.76 52.068 C 1456.36 51.215 1457.16 50.038 1457.16 48.538 C 1457.16 47.238 1456.587 46.238 1455.44 45.538 C 1454.287 44.838 1451.96 44.088 1448.46 43.288 L 1436.61 40.588 C 1429.11 38.888 1423.71 36.388 1420.41 33.088 C 1417.11 29.788 1415.46 25.088 1415.46 18.988 C 1415.46 14.288 1416.86 10.111 1419.66 6.458 C 1422.46 2.811 1426.384 -0.012 1431.43 -2.012 C 1436.484 -4.012 1442.21 -5.012 1448.61 -5.012 C 1453.91 -5.012 1459.187 -4.235 1464.44 -2.682 C 1469.687 -1.135 1474.46 1.038 1478.76 3.838 L 1471.86 21.238 C 1467.86 18.738 1463.834 16.811 1459.78 15.458 C 1455.734 14.111 1451.91 13.438 1448.31 13.438 C 1445.41 13.438 1443.16 13.888 1441.56 14.788 C 1439.96 15.688 1439.16 16.988 1439.16 18.688 C 1439.16 19.688 1439.66 20.515 1440.66 21.168 C 1441.66 21.815 1443.41 22.438 1445.91 23.038 L 1458.36 25.888 C 1466.16 27.588 1471.81 30.215 1475.31 33.768 C 1478.81 37.315 1480.56 42.138 1480.56 48.238 C 1480.56 55.538 1477.634 61.288 1471.78 65.488 C 1465.934 69.688 1457.91 71.788 1447.71 71.788 ZM 1534.86 52.588 C 1537.06 52.588 1539.51 52.438 1542.21 52.138 L 1540.86 71.188 C 1537.66 71.588 1534.56 71.788 1531.56 71.788 C 1519.56 71.788 1510.837 69.261 1505.39 64.208 C 1499.937 59.161 1497.21 51.338 1497.21 40.738 L 1497.21 16.438 L 1483.41 16.438 L 1483.41 -3.212 L 1497.21 -3.212 L 1497.21 -24.662 L 1523.91 -24.662 L 1523.91 -3.212 L 1541.61 -3.212 L 1541.61 16.438 L 1523.91 16.438 L 1523.91 40.888 C 1523.91 48.688 1527.56 52.588 1534.86 52.588 ZM 1606.86 -5.312 L 1608.36 16.738 L 1593.81 18.238 C 1588.01 18.838 1583.96 20.388 1581.66 22.888 C 1579.36 25.388 1578.21 28.938 1578.21 33.538 L 1578.21 70.588 L 1551.51 70.588 L 1551.51 -3.212 L 1576.86 -3.212 L 1576.86 9.538 C 1578.56 5.038 1581.36 1.611 1585.26 -0.742 C 1589.16 -3.089 1593.91 -4.412 1599.51 -4.712 L 1606.86 -5.312 ZM 1648.26 -5.012 C 1659.86 -5.012 1668.434 -2.339 1673.98 3.008 C 1679.534 8.361 1682.31 16.688 1682.31 27.988 L 1682.31 70.588 L 1657.26 70.588 L 1657.26 60.238 C 1655.86 63.838 1653.51 66.661 1650.21 68.708 C 1646.91 70.761 1642.96 71.788 1638.36 71.788 C 1633.26 71.788 1628.66 70.761 1624.56 68.708 C 1620.46 66.661 1617.234 63.815 1614.88 60.168 C 1612.534 56.515 1611.36 52.388 1611.36 47.788 C 1611.36 42.488 1612.737 38.261 1615.49 35.108 C 1618.237 31.961 1622.61 29.688 1628.61 28.288 C 1634.61 26.888 1642.71 26.188 1652.91 26.188 L 1656.96 26.188 L 1656.96 24.388 C 1656.96 20.688 1656.11 18.115 1654.41 16.668 C 1652.71 15.215 1649.71 14.488 1645.41 14.488 C 1642.01 14.488 1638.087 15.165 1633.64 16.518 C 1629.187 17.865 1625.01 19.588 1621.11 21.688 L 1614.36 4.138 C 1618.66 1.538 1624.034 -0.635 1630.48 -2.382 C 1636.934 -4.135 1642.86 -5.012 1648.26 -5.012 Z M 1644.66 53.938 C 1648.26 53.938 1651.21 52.665 1653.51 50.118 C 1655.81 47.565 1656.96 44.288 1656.96 40.288 L 1656.96 38.488 L 1654.56 38.488 C 1648.16 38.488 1643.61 39.061 1640.91 40.208 C 1638.21 41.361 1636.86 43.288 1636.86 45.988 C 1636.86 48.288 1637.584 50.188 1639.03 51.688 C 1640.484 53.188 1642.36 53.938 1644.66 53.938 ZM 1741.41 52.588 C 1743.61 52.588 1746.06 52.438 1748.76 52.138 L 1747.41 71.188 C 1744.21 71.588 1741.11 71.788 1738.11 71.788 C 1726.11 71.788 1717.387 69.261 1711.94 64.208 C 1706.487 59.161 1703.76 51.338 1703.76 40.738 L 1703.76 16.438 L 1689.96 16.438 L 1689.96 -3.212 L 1703.76 -3.212 L 1703.76 -24.662 L 1730.46 -24.662 L 1730.46 -3.212 L 1748.16 -3.212 L 1748.16 16.438 L 1730.46 16.438 L 1730.46 40.888 C 1730.46 48.688 1734.11 52.588 1741.41 52.588 ZM 1784.76 70.588 L 1758.06 70.588 L 1758.06 -3.212 L 1784.76 -3.212 L 1784.76 70.588 Z M 1757.46 -15.962 L 1757.46 -40.112 L 1785.36 -40.112 L 1785.36 -15.962 L 1757.46 -15.962 ZM 1837.41 71.788 C 1829.31 71.788 1822.187 70.215 1816.04 67.068 C 1809.887 63.915 1805.137 59.438 1801.79 53.638 C 1798.437 47.838 1796.76 41.038 1796.76 33.238 C 1796.76 25.438 1798.437 18.665 1801.79 12.918 C 1805.137 7.165 1809.86 2.738 1815.96 -0.362 C 1822.06 -3.462 1829.21 -5.012 1837.41 -5.012 C 1845.61 -5.012 1852.76 -3.462 1858.86 -0.362 C 1864.96 2.738 1869.687 7.165 1873.04 12.918 C 1876.387 18.665 1878.06 25.438 1878.06 33.238 C 1878.06 41.038 1876.387 47.838 1873.04 53.638 C 1869.687 59.438 1864.96 63.915 1858.86 67.068 C 1852.76 70.215 1845.61 71.788 1837.41 71.788 Z M 1837.41 51.838 C 1846.91 51.838 1851.66 45.638 1851.66 33.238 C 1851.66 20.838 1846.91 14.638 1837.41 14.638 C 1827.91 14.638 1823.16 20.838 1823.16 33.238 C 1823.16 45.638 1827.91 51.838 1837.41 51.838 ZM 1939.86 -5.012 C 1948.66 -5.012 1955.21 -2.385 1959.51 2.868 C 1963.81 8.115 1965.96 16.088 1965.96 26.788 L 1965.96 70.588 L 1939.26 70.588 L 1939.26 27.988 C 1939.26 23.588 1938.484 20.388 1936.93 18.388 C 1935.384 16.388 1933.06 15.388 1929.96 15.388 C 1925.96 15.388 1922.784 16.661 1920.43 19.208 C 1918.084 21.761 1916.91 25.188 1916.91 29.488 L 1916.91 70.588 L 1890.21 70.588 L 1890.21 -3.212 L 1916.16 -3.212 L 1916.16 6.688 C 1918.76 2.888 1922.11 -0.012 1926.21 -2.012 C 1930.31 -4.012 1934.86 -5.012 1939.86 -5.012 Z" transform="matrix(1, 0, 0, 1, 0, 0)" style="fill: rgb(255, 68, 0); white-space: pre;"/>
</svg>