<?xml version="1.0" encoding="utf-8"?>
<svg viewBox="98.81600189208984 21.652999877929688 1440 138.89999389648438" xmlns="http://www.w3.org/2000/svg">
  <path d="M 98.816 132.353 L 98.816 26.603 L 149.966 26.603 C 161.666 26.603 170.766 29.576 177.266 35.523 C 183.766 41.476 187.016 49.753 187.016 60.353 C 187.016 70.853 183.739 79.103 177.186 85.103 C 170.639 91.103 161.566 94.103 149.966 94.103 L 126.416 94.103 L 126.416 132.353 L 98.816 132.353 Z M 126.416 73.403 L 146.216 73.403 C 151.316 73.403 155.093 72.353 157.546 70.253 C 159.993 68.153 161.216 64.903 161.216 60.503 C 161.216 56.103 159.993 52.83 157.546 50.683 C 155.093 48.53 151.316 47.453 146.216 47.453 L 126.416 47.453 L 126.416 73.403 ZM 263.516 94.553 L 263.516 100.553 L 217.916 100.553 C 218.716 105.353 220.466 108.803 223.166 110.903 C 225.866 113.003 229.716 114.053 234.716 114.053 C 238.316 114.053 241.966 113.453 245.666 112.253 C 249.366 111.053 252.666 109.403 255.566 107.303 L 262.316 124.853 C 258.616 127.553 254.166 129.676 248.966 131.223 C 243.766 132.776 238.566 133.553 233.366 133.553 C 224.866 133.553 217.516 132.003 211.316 128.903 C 205.116 125.803 200.343 121.353 196.996 115.553 C 193.643 109.753 191.966 102.953 191.966 95.153 C 191.966 87.753 193.539 81.13 196.686 75.283 C 199.839 69.43 204.239 64.88 209.886 61.633 C 215.539 58.38 221.916 56.753 229.016 56.753 C 239.616 56.753 248.016 60.13 254.216 66.883 C 260.416 73.63 263.516 82.853 263.516 94.553 Z M 229.766 74.753 C 222.666 74.753 218.616 79.153 217.616 87.953 L 241.166 87.953 C 240.566 79.153 236.766 74.753 229.766 74.753 ZM 331.016 56.453 L 332.516 78.503 L 317.966 80.003 C 312.166 80.603 308.116 82.153 305.816 84.653 C 303.516 87.153 302.366 90.703 302.366 95.303 L 302.366 132.353 L 275.666 132.353 L 275.666 58.553 L 301.016 58.553 L 301.016 71.303 C 302.716 66.803 305.516 63.376 309.416 61.023 C 313.316 58.676 318.066 57.353 323.666 57.053 L 331.016 56.453 ZM 379.616 55.853 L 379.616 58.553 L 397.316 58.553 L 397.316 78.203 L 379.616 78.203 L 379.616 132.353 L 352.916 132.353 L 352.916 78.203 L 339.116 78.203 L 339.116 58.553 L 352.916 58.553 C 353.416 48.253 356.793 40.476 363.046 35.223 C 369.293 29.976 378.666 27.003 391.166 26.303 L 400.316 25.703 L 401.816 45.053 L 394.766 45.353 C 389.066 45.553 385.116 46.403 382.916 47.903 C 380.716 49.403 379.616 52.053 379.616 55.853 ZM 442.016 133.553 C 433.916 133.553 426.793 131.98 420.646 128.833 C 414.493 125.68 409.743 121.203 406.396 115.403 C 403.043 109.603 401.366 102.803 401.366 95.003 C 401.366 87.203 403.043 80.43 406.396 74.683 C 409.743 68.93 414.466 64.503 420.566 61.403 C 426.666 58.303 433.816 56.753 442.016 56.753 C 450.216 56.753 457.366 58.303 463.466 61.403 C 469.566 64.503 474.293 68.93 477.646 74.683 C 480.993 80.43 482.666 87.203 482.666 95.003 C 482.666 102.803 480.993 109.603 477.646 115.403 C 474.293 121.203 469.566 125.68 463.466 128.833 C 457.366 131.98 450.216 133.553 442.016 133.553 Z M 442.016 113.603 C 451.516 113.603 456.266 107.403 456.266 95.003 C 456.266 82.603 451.516 76.403 442.016 76.403 C 432.516 76.403 427.766 82.603 427.766 95.003 C 427.766 107.403 432.516 113.603 442.016 113.603 ZM 550.166 56.453 L 551.666 78.503 L 537.116 80.003 C 531.316 80.603 527.266 82.153 524.966 84.653 C 522.666 87.153 521.516 90.703 521.516 95.303 L 521.516 132.353 L 494.816 132.353 L 494.816 58.553 L 520.166 58.553 L 520.166 71.303 C 521.866 66.803 524.666 63.376 528.566 61.023 C 532.466 58.676 537.216 57.353 542.816 57.053 L 550.166 56.453 ZM 651.866 56.753 C 660.466 56.753 666.843 59.353 670.996 64.553 C 675.143 69.753 677.216 77.753 677.216 88.553 L 677.216 132.353 L 650.516 132.353 L 650.516 89.303 C 650.516 85.003 649.866 81.903 648.566 80.003 C 647.266 78.103 645.116 77.153 642.116 77.153 C 638.416 77.153 635.589 78.453 633.636 81.053 C 631.689 83.653 630.716 87.353 630.716 92.153 L 630.716 132.353 L 604.016 132.353 L 604.016 89.303 C 604.016 85.003 603.366 81.903 602.066 80.003 C 600.766 78.103 598.616 77.153 595.616 77.153 C 591.916 77.153 589.116 78.453 587.216 81.053 C 585.316 83.653 584.366 87.353 584.366 92.153 L 584.366 132.353 L 557.666 132.353 L 557.666 58.553 L 583.616 58.553 L 583.616 67.853 C 588.516 60.453 596.016 56.753 606.116 56.753 C 616.716 56.753 623.866 61.103 627.566 69.803 C 630.166 65.703 633.589 62.503 637.836 60.203 C 642.089 57.903 646.766 56.753 651.866 56.753 ZM 725.966 56.753 C 737.566 56.753 746.139 59.426 751.686 64.773 C 757.239 70.126 760.016 78.453 760.016 89.753 L 760.016 132.353 L 734.966 132.353 L 734.966 122.003 C 733.566 125.603 731.216 128.426 727.916 130.473 C 724.616 132.526 720.666 133.553 716.066 133.553 C 710.966 133.553 706.366 132.526 702.266 130.473 C 698.166 128.426 694.939 125.58 692.586 121.933 C 690.239 118.28 689.066 114.153 689.066 109.553 C 689.066 104.253 690.443 100.026 693.196 96.873 C 695.943 93.726 700.316 91.453 706.316 90.053 C 712.316 88.653 720.416 87.953 730.616 87.953 L 734.666 87.953 L 734.666 86.153 C 734.666 82.453 733.816 79.88 732.116 78.433 C 730.416 76.98 727.416 76.253 723.116 76.253 C 719.716 76.253 715.793 76.93 711.346 78.283 C 706.893 79.63 702.716 81.353 698.816 83.453 L 692.066 65.903 C 696.366 63.303 701.739 61.13 708.186 59.383 C 714.639 57.63 720.566 56.753 725.966 56.753 Z M 722.366 115.703 C 725.966 115.703 728.916 114.43 731.216 111.883 C 733.516 109.33 734.666 106.053 734.666 102.053 L 734.666 100.253 L 732.266 100.253 C 725.866 100.253 721.316 100.826 718.616 101.973 C 715.916 103.126 714.566 105.053 714.566 107.753 C 714.566 110.053 715.289 111.953 716.736 113.453 C 718.189 114.953 720.066 115.703 722.366 115.703 ZM 824.666 56.753 C 833.466 56.753 840.016 59.38 844.316 64.633 C 848.616 69.88 850.766 77.853 850.766 88.553 L 850.766 132.353 L 824.066 132.353 L 824.066 89.753 C 824.066 85.353 823.289 82.153 821.736 80.153 C 820.189 78.153 817.866 77.153 814.766 77.153 C 810.766 77.153 807.589 78.426 805.236 80.973 C 802.889 83.526 801.716 86.953 801.716 91.253 L 801.716 132.353 L 775.016 132.353 L 775.016 58.553 L 800.966 58.553 L 800.966 68.453 C 803.566 64.653 806.916 61.753 811.016 59.753 C 815.116 57.753 819.666 56.753 824.666 56.753 ZM 902.516 133.553 C 889.916 133.553 880.066 130.153 872.966 123.353 C 865.866 116.553 862.316 107.303 862.316 95.603 C 862.316 87.903 864.043 81.103 867.496 75.203 C 870.943 69.303 875.789 64.753 882.036 61.553 C 888.289 58.353 895.516 56.753 903.716 56.753 C 909.216 56.753 914.539 57.553 919.686 59.153 C 924.839 60.753 929.016 62.903 932.216 65.603 L 925.466 83.603 C 922.966 81.603 919.939 79.976 916.386 78.723 C 912.839 77.476 909.516 76.853 906.416 76.853 C 901.016 76.853 896.889 78.353 894.036 81.353 C 891.189 84.353 889.766 88.903 889.766 95.003 C 889.766 101.103 891.189 105.703 894.036 108.803 C 896.889 111.903 901.016 113.453 906.416 113.453 C 909.516 113.453 912.839 112.83 916.386 111.583 C 919.939 110.33 922.966 108.653 925.466 106.553 L 932.216 124.703 C 928.816 127.503 924.489 129.676 919.236 131.223 C 913.989 132.776 908.416 133.553 902.516 133.553 ZM 1008.866 94.553 L 1008.866 100.553 L 963.266 100.553 C 964.066 105.353 965.816 108.803 968.516 110.903 C 971.216 113.003 975.066 114.053 980.066 114.053 C 983.666 114.053 987.316 113.453 991.016 112.253 C 994.716 111.053 998.016 109.403 1000.916 107.303 L 1007.666 124.853 C 1003.966 127.553 999.516 129.676 994.316 131.223 C 989.116 132.776 983.916 133.553 978.716 133.553 C 970.216 133.553 962.866 132.003 956.666 128.903 C 950.466 125.803 945.693 121.353 942.346 115.553 C 938.993 109.753 937.316 102.953 937.316 95.153 C 937.316 87.753 938.889 81.13 942.036 75.283 C 945.189 69.43 949.589 64.88 955.236 61.633 C 960.889 58.38 967.266 56.753 974.366 56.753 C 984.966 56.753 993.366 60.13 999.566 66.883 C 1005.766 73.63 1008.866 82.853 1008.866 94.553 Z M 975.116 74.753 C 968.016 74.753 963.966 79.153 962.966 87.953 L 986.516 87.953 C 985.916 79.153 982.116 74.753 975.116 74.753 ZM 1117.466 132.353 L 1089.566 132.353 L 1089.566 48.953 L 1057.916 48.953 L 1057.916 26.603 L 1149.116 26.603 L 1149.116 48.953 L 1117.466 48.953 L 1117.466 132.353 ZM 1194.116 58.553 L 1220.816 58.553 L 1220.816 132.353 L 1194.866 132.353 L 1194.866 122.453 C 1192.566 126.053 1189.643 128.803 1186.096 130.703 C 1182.543 132.603 1178.466 133.553 1173.866 133.553 C 1164.366 133.553 1157.316 130.93 1152.716 125.683 C 1148.116 120.43 1145.816 112.453 1145.816 101.753 L 1145.816 58.553 L 1172.516 58.553 L 1172.516 102.353 C 1172.516 109.553 1175.616 113.153 1181.816 113.153 C 1185.416 113.153 1188.366 111.853 1190.666 109.253 C 1192.966 106.653 1194.116 103.253 1194.116 99.053 L 1194.116 58.553 ZM 1286.066 56.753 C 1294.866 56.753 1301.416 59.38 1305.716 64.633 C 1310.016 69.88 1312.166 77.853 1312.166 88.553 L 1312.166 132.353 L 1285.466 132.353 L 1285.466 89.753 C 1285.466 85.353 1284.689 82.153 1283.136 80.153 C 1281.589 78.153 1279.266 77.153 1276.166 77.153 C 1272.166 77.153 1268.989 78.426 1266.636 80.973 C 1264.289 83.526 1263.116 86.953 1263.116 91.253 L 1263.116 132.353 L 1236.416 132.353 L 1236.416 58.553 L 1262.366 58.553 L 1262.366 68.453 C 1264.966 64.653 1268.316 61.753 1272.416 59.753 C 1276.516 57.753 1281.066 56.753 1286.066 56.753 ZM 1353.866 132.353 L 1327.166 132.353 L 1327.166 58.553 L 1353.866 58.553 L 1353.866 132.353 Z M 1326.566 45.803 L 1326.566 21.653 L 1354.466 21.653 L 1354.466 45.803 L 1326.566 45.803 ZM 1418.966 56.753 C 1427.766 56.753 1434.316 59.38 1438.616 64.633 C 1442.916 69.88 1445.066 77.853 1445.066 88.553 L 1445.066 132.353 L 1418.366 132.353 L 1418.366 89.753 C 1418.366 85.353 1417.589 82.153 1416.036 80.153 C 1414.49 78.153 1412.166 77.153 1409.066 77.153 C 1405.066 77.153 1401.889 78.426 1399.536 80.973 C 1397.189 83.526 1396.016 86.953 1396.016 91.253 L 1396.016 132.353 L 1369.316 132.353 L 1369.316 58.553 L 1395.266 58.553 L 1395.266 68.453 C 1397.866 64.653 1401.216 61.753 1405.316 59.753 C 1409.416 57.753 1413.966 56.753 1418.966 56.753 ZM 1512.566 58.553 L 1538.816 58.553 L 1538.816 123.353 C 1538.816 135.553 1535.189 144.803 1527.936 151.103 C 1520.689 157.403 1509.966 160.553 1495.766 160.553 C 1489.066 160.553 1482.566 159.78 1476.266 158.233 C 1469.966 156.68 1464.516 154.503 1459.916 151.703 L 1466.666 133.553 C 1471.266 135.953 1476.039 137.803 1480.986 139.103 C 1485.939 140.403 1490.616 141.053 1495.016 141.053 C 1500.916 141.053 1505.293 139.78 1508.146 137.233 C 1510.993 134.68 1512.416 130.653 1512.416 125.153 L 1512.416 119.453 C 1510.216 122.753 1507.066 125.38 1502.966 127.333 C 1498.866 129.28 1494.416 130.253 1489.616 130.253 C 1483.216 130.253 1477.516 128.753 1472.516 125.753 C 1467.516 122.753 1463.616 118.476 1460.816 112.923 C 1458.016 107.376 1456.616 100.953 1456.616 93.653 C 1456.616 86.353 1458.016 79.903 1460.816 74.303 C 1463.616 68.703 1467.516 64.38 1472.516 61.333 C 1477.516 58.28 1483.216 56.753 1489.616 56.753 C 1494.516 56.753 1499.016 57.753 1503.116 59.753 C 1507.216 61.753 1510.366 64.503 1512.566 68.003 L 1512.566 58.553 Z M 1497.716 110.303 C 1502.416 110.303 1506.066 108.83 1508.666 105.883 C 1511.266 102.93 1512.566 98.853 1512.566 93.653 C 1512.566 88.353 1511.266 84.203 1508.666 81.203 C 1506.066 78.203 1502.416 76.703 1497.716 76.703 C 1493.116 76.703 1489.516 78.176 1486.916 81.123 C 1484.316 84.076 1483.016 88.253 1483.016 93.653 C 1483.016 98.853 1484.343 102.93 1486.996 105.883 C 1489.643 108.83 1493.216 110.303 1497.716 110.303 Z" transform="matrix(1, 0, 0, 1, 0, 0)" style="fill: rgb(255, 68, 0); white-space: pre;"/>
</svg>