<?xml version="1.0" encoding="utf-8"?>
<svg viewBox="114.2030029296875 -48.03099822998047 1723.6409912109375 204.406005859375" xmlns="http://www.w3.org/2000/svg">
  <path d="M 162.066 104.781 C 154.166 104.781 146.366 103.731 138.666 101.631 C 130.966 99.531 124.716 96.731 119.916 93.231 L 128.466 73.731 C 133.566 76.931 139.016 79.381 144.816 81.081 C 150.616 82.781 156.466 83.631 162.366 83.631 C 168.366 83.631 172.943 82.808 176.096 81.161 C 179.243 79.508 180.816 77.181 180.816 74.181 C 180.816 71.481 179.389 69.281 176.536 67.581 C 173.689 65.881 168.266 64.181 160.266 62.481 C 150.366 60.381 142.616 57.881 137.016 54.981 C 131.416 52.081 127.493 48.681 125.246 44.781 C 122.993 40.881 121.866 36.081 121.866 30.381 C 121.866 23.881 123.693 18.058 127.346 12.911 C 130.993 7.758 136.139 3.708 142.786 0.761 C 149.439 -2.192 157.066 -3.669 165.666 -3.669 C 173.266 -3.669 180.643 -2.596 187.796 -0.449 C 194.943 1.704 200.516 4.481 204.516 7.881 L 196.116 27.381 C 186.516 20.781 176.416 17.481 165.816 17.481 C 160.716 17.481 156.616 18.458 153.516 20.411 C 150.416 22.358 148.866 24.931 148.866 28.131 C 148.866 30.031 149.416 31.581 150.516 32.781 C 151.616 33.981 153.666 35.154 156.666 36.301 C 159.666 37.454 164.116 38.631 170.016 39.831 C 179.616 41.931 187.166 44.458 192.666 47.411 C 198.166 50.358 202.066 53.781 204.366 57.681 C 206.666 61.581 207.816 66.231 207.816 71.631 C 207.816 82.031 203.816 90.158 195.816 96.011 C 187.816 101.858 176.566 104.781 162.066 104.781 ZM 253.266 71.331 L 270.366 29.781 L 296.466 29.781 L 251.466 130.431 L 224.466 130.431 L 239.316 98.331 L 209.166 29.781 L 237.066 29.781 L 253.266 71.331 ZM 330.216 104.631 C 323.116 104.631 316.566 103.881 310.566 102.381 C 304.566 100.881 299.516 98.681 295.416 95.781 L 302.166 77.631 C 306.166 80.231 310.716 82.308 315.816 83.861 C 320.916 85.408 325.816 86.181 330.516 86.181 C 333.416 86.181 335.666 85.758 337.266 84.911 C 338.866 84.058 339.666 82.881 339.666 81.381 C 339.666 80.081 339.093 79.081 337.946 78.381 C 336.793 77.681 334.466 76.931 330.966 76.131 L 319.116 73.431 C 311.616 71.731 306.216 69.231 302.916 65.931 C 299.616 62.631 297.966 57.931 297.966 51.831 C 297.966 47.131 299.366 42.954 302.166 39.301 C 304.966 35.654 308.889 32.831 313.936 30.831 C 318.989 28.831 324.716 27.831 331.116 27.831 C 336.416 27.831 341.693 28.608 346.946 30.161 C 352.193 31.708 356.966 33.881 361.266 36.681 L 354.366 54.081 C 350.366 51.581 346.339 49.654 342.286 48.301 C 338.239 46.954 334.416 46.281 330.816 46.281 C 327.916 46.281 325.666 46.731 324.066 47.631 C 322.466 48.531 321.666 49.831 321.666 51.531 C 321.666 52.531 322.166 53.358 323.166 54.011 C 324.166 54.658 325.916 55.281 328.416 55.881 L 340.866 58.731 C 348.666 60.431 354.316 63.058 357.816 66.611 C 361.316 70.158 363.066 74.981 363.066 81.081 C 363.066 88.381 360.139 94.131 354.286 98.331 C 348.439 102.531 340.416 104.631 330.216 104.631 ZM 417.366 85.431 C 419.566 85.431 422.016 85.281 424.716 84.981 L 423.366 104.031 C 420.166 104.431 417.066 104.631 414.066 104.631 C 402.066 104.631 393.343 102.104 387.896 97.051 C 382.443 92.004 379.716 84.181 379.716 73.581 L 379.716 49.281 L 365.916 49.281 L 365.916 29.631 L 379.716 29.631 L 379.716 8.181 L 406.416 8.181 L 406.416 29.631 L 424.116 29.631 L 424.116 49.281 L 406.416 49.281 L 406.416 73.731 C 406.416 81.531 410.066 85.431 417.366 85.431 ZM 502.116 65.631 L 502.116 71.631 L 456.516 71.631 C 457.316 76.431 459.066 79.881 461.766 81.981 C 464.466 84.081 468.316 85.131 473.316 85.131 C 476.916 85.131 480.566 84.531 484.266 83.331 C 487.966 82.131 491.266 80.481 494.166 78.381 L 500.916 95.931 C 497.216 98.631 492.766 100.754 487.566 102.301 C 482.366 103.854 477.166 104.631 471.966 104.631 C 463.466 104.631 456.116 103.081 449.916 99.981 C 443.716 96.881 438.943 92.431 435.596 86.631 C 432.243 80.831 430.566 74.031 430.566 66.231 C 430.566 58.831 432.139 52.208 435.286 46.361 C 438.439 40.508 442.839 35.958 448.486 32.711 C 454.139 29.458 460.516 27.831 467.616 27.831 C 478.216 27.831 486.616 31.208 492.816 37.961 C 499.016 44.708 502.116 53.931 502.116 65.631 Z M 468.366 45.831 C 461.266 45.831 457.216 50.231 456.216 59.031 L 479.766 59.031 C 479.166 50.231 475.366 45.831 468.366 45.831 ZM 608.466 27.831 C 617.066 27.831 623.443 30.431 627.596 35.631 C 631.743 40.831 633.816 48.831 633.816 59.631 L 633.816 103.431 L 607.116 103.431 L 607.116 60.381 C 607.116 56.081 606.466 52.981 605.166 51.081 C 603.866 49.181 601.716 48.231 598.716 48.231 C 595.016 48.231 592.189 49.531 590.236 52.131 C 588.289 54.731 587.316 58.431 587.316 63.231 L 587.316 103.431 L 560.616 103.431 L 560.616 60.381 C 560.616 56.081 559.966 52.981 558.666 51.081 C 557.366 49.181 555.216 48.231 552.216 48.231 C 548.516 48.231 545.716 49.531 543.816 52.131 C 541.916 54.731 540.966 58.431 540.966 63.231 L 540.966 103.431 L 514.266 103.431 L 514.266 29.631 L 540.216 29.631 L 540.216 38.931 C 545.116 31.531 552.616 27.831 562.716 27.831 C 573.316 27.831 580.466 32.181 584.166 40.881 C 586.766 36.781 590.189 33.581 594.436 31.281 C 598.689 28.981 603.366 27.831 608.466 27.831 ZM 678.516 104.631 C 671.416 104.631 664.866 103.881 658.866 102.381 C 652.866 100.881 647.816 98.681 643.716 95.781 L 650.466 77.631 C 654.466 80.231 659.016 82.308 664.116 83.861 C 669.216 85.408 674.116 86.181 678.816 86.181 C 681.716 86.181 683.966 85.758 685.566 84.911 C 687.166 84.058 687.966 82.881 687.966 81.381 C 687.966 80.081 687.393 79.081 686.246 78.381 C 685.093 77.681 682.766 76.931 679.266 76.131 L 667.416 73.431 C 659.916 71.731 654.516 69.231 651.216 65.931 C 647.916 62.631 646.266 57.931 646.266 51.831 C 646.266 47.131 647.666 42.954 650.466 39.301 C 653.266 35.654 657.189 32.831 662.236 30.831 C 667.289 28.831 673.016 27.831 679.416 27.831 C 684.716 27.831 689.993 28.608 695.246 30.161 C 700.493 31.708 705.266 33.881 709.566 36.681 L 702.666 54.081 C 698.666 51.581 694.639 49.654 690.586 48.301 C 686.539 46.954 682.716 46.281 679.116 46.281 C 676.216 46.281 673.966 46.731 672.366 47.631 C 670.766 48.531 669.966 49.831 669.966 51.531 C 669.966 52.531 670.466 53.358 671.466 54.011 C 672.466 54.658 674.216 55.281 676.716 55.881 L 689.166 58.731 C 696.966 60.431 702.616 63.058 706.116 66.611 C 709.616 70.158 711.366 74.981 711.366 81.081 C 711.366 88.381 708.439 94.131 702.586 98.331 C 696.739 102.531 688.716 104.631 678.516 104.631 ZM 874.866 103.431 L 847.566 103.431 L 838.116 81.531 L 791.316 81.531 L 781.866 103.431 L 754.116 103.431 L 803.466 -2.319 L 825.366 -2.319 L 874.866 103.431 Z M 814.716 26.931 L 800.166 60.831 L 829.266 60.831 L 814.716 26.931 ZM 930.816 -2.319 L 957.516 -2.319 L 957.516 103.431 L 931.266 103.431 L 931.266 93.381 C 929.166 96.881 926.093 99.631 922.046 101.631 C 917.993 103.631 913.516 104.631 908.616 104.631 C 902.316 104.631 896.693 103.008 891.746 99.761 C 886.793 96.508 882.916 91.931 880.116 86.031 C 877.316 80.131 875.916 73.381 875.916 65.781 C 875.916 58.181 877.289 51.508 880.036 45.761 C 882.789 40.008 886.639 35.581 891.586 32.481 C 896.539 29.381 902.216 27.831 908.616 27.831 C 913.316 27.831 917.639 28.781 921.586 30.681 C 925.539 32.581 928.616 35.131 930.816 38.331 L 930.816 -2.319 Z M 916.716 84.681 C 921.416 84.681 925.016 83.081 927.516 79.881 C 930.016 76.681 931.266 72.081 931.266 66.081 C 931.266 60.181 930.016 55.658 927.516 52.511 C 925.016 49.358 921.416 47.781 916.716 47.781 C 912.116 47.781 908.566 49.331 906.066 52.431 C 903.566 55.531 902.316 59.981 902.316 65.781 C 902.316 71.781 903.589 76.431 906.136 79.731 C 908.689 83.031 912.216 84.681 916.716 84.681 ZM 1067.316 27.831 C 1075.916 27.831 1082.293 30.431 1086.446 35.631 C 1090.593 40.831 1092.666 48.831 1092.666 59.631 L 1092.666 103.431 L 1065.966 103.431 L 1065.966 60.381 C 1065.966 56.081 1065.316 52.981 1064.016 51.081 C 1062.716 49.181 1060.566 48.231 1057.566 48.231 C 1053.866 48.231 1051.039 49.531 1049.086 52.131 C 1047.139 54.731 1046.166 58.431 1046.166 63.231 L 1046.166 103.431 L 1019.466 103.431 L 1019.466 60.381 C 1019.466 56.081 1018.816 52.981 1017.516 51.081 C 1016.216 49.181 1014.066 48.231 1011.066 48.231 C 1007.366 48.231 1004.566 49.531 1002.666 52.131 C 1000.766 54.731 999.816 58.431 999.816 63.231 L 999.816 103.431 L 973.116 103.431 L 973.116 29.631 L 999.066 29.631 L 999.066 38.931 C 1003.966 31.531 1011.466 27.831 1021.566 27.831 C 1032.166 27.831 1039.316 32.181 1043.016 40.881 C 1045.616 36.781 1049.039 33.581 1053.286 31.281 C 1057.539 28.981 1062.216 27.831 1067.316 27.831 ZM 1134.366 103.431 L 1107.666 103.431 L 1107.666 29.631 L 1134.366 29.631 L 1134.366 103.431 Z M 1107.066 16.881 L 1107.066 -7.269 L 1134.966 -7.269 L 1134.966 16.881 L 1107.066 16.881 ZM 1199.466 27.831 C 1208.266 27.831 1214.816 30.458 1219.116 35.711 C 1223.416 40.958 1225.566 48.931 1225.566 59.631 L 1225.566 103.431 L 1198.866 103.431 L 1198.866 60.831 C 1198.866 56.431 1198.089 53.231 1196.536 51.231 C 1194.99 49.231 1192.666 48.231 1189.566 48.231 C 1185.566 48.231 1182.389 49.504 1180.036 52.051 C 1177.689 54.604 1176.516 58.031 1176.516 62.331 L 1176.516 103.431 L 1149.816 103.431 L 1149.816 29.631 L 1175.766 29.631 L 1175.766 39.531 C 1178.366 35.731 1181.716 32.831 1185.816 30.831 C 1189.916 28.831 1194.466 27.831 1199.466 27.831 ZM 1267.266 103.431 L 1240.566 103.431 L 1240.566 29.631 L 1267.266 29.631 L 1267.266 103.431 Z M 1239.966 16.881 L 1239.966 -7.269 L 1267.866 -7.269 L 1267.866 16.881 L 1239.966 16.881 ZM 1312.416 104.631 C 1305.316 104.631 1298.766 103.881 1292.766 102.381 C 1286.766 100.881 1281.716 98.681 1277.616 95.781 L 1284.366 77.631 C 1288.366 80.231 1292.916 82.308 1298.016 83.861 C 1303.116 85.408 1308.016 86.181 1312.716 86.181 C 1315.616 86.181 1317.866 85.758 1319.466 84.911 C 1321.066 84.058 1321.866 82.881 1321.866 81.381 C 1321.866 80.081 1321.293 79.081 1320.146 78.381 C 1318.993 77.681 1316.666 76.931 1313.166 76.131 L 1301.316 73.431 C 1293.816 71.731 1288.416 69.231 1285.116 65.931 C 1281.816 62.631 1280.166 57.931 1280.166 51.831 C 1280.166 47.131 1281.566 42.954 1284.366 39.301 C 1287.166 35.654 1291.09 32.831 1296.136 30.831 C 1301.19 28.831 1306.916 27.831 1313.316 27.831 C 1318.616 27.831 1323.893 28.608 1329.146 30.161 C 1334.393 31.708 1339.166 33.881 1343.466 36.681 L 1336.566 54.081 C 1332.566 51.581 1328.54 49.654 1324.486 48.301 C 1320.44 46.954 1316.616 46.281 1313.016 46.281 C 1310.116 46.281 1307.866 46.731 1306.266 47.631 C 1304.666 48.531 1303.866 49.831 1303.866 51.531 C 1303.866 52.531 1304.366 53.358 1305.366 54.011 C 1306.366 54.658 1308.116 55.281 1310.616 55.881 L 1323.066 58.731 C 1330.866 60.431 1336.516 63.058 1340.016 66.611 C 1343.516 70.158 1345.266 74.981 1345.266 81.081 C 1345.266 88.381 1342.34 94.131 1336.486 98.331 C 1330.64 102.531 1322.616 104.631 1312.416 104.631 ZM 1399.566 85.431 C 1401.766 85.431 1404.216 85.281 1406.916 84.981 L 1405.566 104.031 C 1402.366 104.431 1399.266 104.631 1396.266 104.631 C 1384.266 104.631 1375.543 102.104 1370.096 97.051 C 1364.643 92.004 1361.916 84.181 1361.916 73.581 L 1361.916 49.281 L 1348.116 49.281 L 1348.116 29.631 L 1361.916 29.631 L 1361.916 8.181 L 1388.616 8.181 L 1388.616 29.631 L 1406.316 29.631 L 1406.316 49.281 L 1388.616 49.281 L 1388.616 73.731 C 1388.616 81.531 1392.266 85.431 1399.566 85.431 ZM 1471.566 27.531 L 1473.066 49.581 L 1458.516 51.081 C 1452.716 51.681 1448.666 53.231 1446.366 55.731 C 1444.066 58.231 1442.916 61.781 1442.916 66.381 L 1442.916 103.431 L 1416.216 103.431 L 1416.216 29.631 L 1441.566 29.631 L 1441.566 42.381 C 1443.266 37.881 1446.066 34.454 1449.966 32.101 C 1453.866 29.754 1458.616 28.431 1464.216 28.131 L 1471.566 27.531 ZM 1512.966 27.831 C 1524.566 27.831 1533.14 30.504 1538.686 35.851 C 1544.24 41.204 1547.016 49.531 1547.016 60.831 L 1547.016 103.431 L 1521.966 103.431 L 1521.966 93.081 C 1520.566 96.681 1518.216 99.504 1514.916 101.551 C 1511.616 103.604 1507.666 104.631 1503.066 104.631 C 1497.966 104.631 1493.366 103.604 1489.266 101.551 C 1485.166 99.504 1481.94 96.658 1479.586 93.011 C 1477.24 89.358 1476.066 85.231 1476.066 80.631 C 1476.066 75.331 1477.443 71.104 1480.196 67.951 C 1482.943 64.804 1487.316 62.531 1493.316 61.131 C 1499.316 59.731 1507.416 59.031 1517.616 59.031 L 1521.666 59.031 L 1521.666 57.231 C 1521.666 53.531 1520.816 50.958 1519.116 49.511 C 1517.416 48.058 1514.416 47.331 1510.116 47.331 C 1506.716 47.331 1502.793 48.008 1498.346 49.361 C 1493.893 50.708 1489.716 52.431 1485.816 54.531 L 1479.066 36.981 C 1483.366 34.381 1488.74 32.208 1495.186 30.461 C 1501.64 28.708 1507.566 27.831 1512.966 27.831 Z M 1509.366 86.781 C 1512.966 86.781 1515.916 85.508 1518.216 82.961 C 1520.516 80.408 1521.666 77.131 1521.666 73.131 L 1521.666 71.331 L 1519.266 71.331 C 1512.866 71.331 1508.316 71.904 1505.616 73.051 C 1502.916 74.204 1501.566 76.131 1501.566 78.831 C 1501.566 81.131 1502.29 83.031 1503.736 84.531 C 1505.19 86.031 1507.066 86.781 1509.366 86.781 ZM 1606.116 85.431 C 1608.316 85.431 1610.766 85.281 1613.466 84.981 L 1612.116 104.031 C 1608.916 104.431 1605.816 104.631 1602.816 104.631 C 1590.816 104.631 1582.093 102.104 1576.646 97.051 C 1571.193 92.004 1568.466 84.181 1568.466 73.581 L 1568.466 49.281 L 1554.666 49.281 L 1554.666 29.631 L 1568.466 29.631 L 1568.466 8.181 L 1595.166 8.181 L 1595.166 29.631 L 1612.866 29.631 L 1612.866 49.281 L 1595.166 49.281 L 1595.166 73.731 C 1595.166 81.531 1598.816 85.431 1606.116 85.431 ZM 1649.466 103.431 L 1622.766 103.431 L 1622.766 29.631 L 1649.466 29.631 L 1649.466 103.431 Z M 1622.166 16.881 L 1622.166 -7.269 L 1650.066 -7.269 L 1650.066 16.881 L 1622.166 16.881 ZM 1702.116 104.631 C 1694.016 104.631 1686.893 103.058 1680.746 99.911 C 1674.593 96.758 1669.843 92.281 1666.496 86.481 C 1663.143 80.681 1661.466 73.881 1661.466 66.081 C 1661.466 58.281 1663.143 51.508 1666.496 45.761 C 1669.843 40.008 1674.566 35.581 1680.667 32.481 C 1686.766 29.381 1693.917 27.831 1702.116 27.831 C 1710.316 27.831 1717.466 29.381 1723.566 32.481 C 1729.667 35.581 1734.393 40.008 1737.746 45.761 C 1741.093 51.508 1742.766 58.281 1742.766 66.081 C 1742.766 73.881 1741.093 80.681 1737.746 86.481 C 1734.393 92.281 1729.667 96.758 1723.566 99.911 C 1717.466 103.058 1710.316 104.631 1702.116 104.631 Z M 1702.116 84.681 C 1711.616 84.681 1716.366 78.481 1716.366 66.081 C 1716.366 53.681 1711.616 47.481 1702.116 47.481 C 1692.616 47.481 1687.866 53.681 1687.866 66.081 C 1687.866 78.481 1692.616 84.681 1702.116 84.681 ZM 1804.566 27.831 C 1813.366 27.831 1819.917 30.458 1824.216 35.711 C 1828.516 40.958 1830.667 48.931 1830.667 59.631 L 1830.667 103.431 L 1803.966 103.431 L 1803.966 60.831 C 1803.966 56.431 1803.19 53.231 1801.636 51.231 C 1800.09 49.231 1797.766 48.231 1794.667 48.231 C 1790.667 48.231 1787.49 49.504 1785.136 52.051 C 1782.79 54.604 1781.616 58.031 1781.616 62.331 L 1781.616 103.431 L 1754.917 103.431 L 1754.917 29.631 L 1780.866 29.631 L 1780.866 39.531 C 1783.466 35.731 1786.816 32.831 1790.917 30.831 C 1795.016 28.831 1799.566 27.831 1804.566 27.831 Z" transform="matrix(1, 0, 0, 1, 0, 0)" style="fill: rgb(255, 68, 0); white-space: pre;"/>
</svg>