<?xml version="1.0" encoding="utf-8"?>
<svg viewBox="71.56300354003906 -28.422000885009766 1210.5 204.406005859375" xmlns="http://www.w3.org/2000/svg">
  <path d="M 119.419 124.389 C 111.519 124.389 103.719 123.339 96.019 121.239 C 88.319 119.139 82.069 116.339 77.269 112.839 L 85.819 93.339 C 90.919 96.539 96.369 98.989 102.169 100.689 C 107.969 102.389 113.819 103.239 119.719 103.239 C 125.719 103.239 130.296 102.416 133.449 100.769 C 136.596 99.116 138.169 96.789 138.169 93.789 C 138.169 91.089 136.742 88.889 133.889 87.189 C 131.042 85.489 125.619 83.789 117.619 82.089 C 107.719 79.989 99.969 77.489 94.369 74.589 C 88.769 71.689 84.846 68.289 82.599 64.389 C 80.346 60.489 79.219 55.689 79.219 49.989 C 79.219 43.489 81.046 37.666 84.699 32.519 C 88.346 27.366 93.492 23.316 100.139 20.369 C 106.792 17.416 114.419 15.939 123.019 15.939 C 130.619 15.939 137.996 17.012 145.149 19.159 C 152.296 21.312 157.869 24.089 161.869 27.489 L 153.469 46.989 C 143.869 40.389 133.769 37.089 123.169 37.089 C 118.069 37.089 113.969 38.066 110.869 40.019 C 107.769 41.966 106.219 44.539 106.219 47.739 C 106.219 49.639 106.769 51.189 107.869 52.389 C 108.969 53.589 111.019 54.762 114.019 55.909 C 117.019 57.062 121.469 58.239 127.369 59.439 C 136.969 61.539 144.519 64.066 150.019 67.019 C 155.519 69.966 159.419 73.389 161.719 77.289 C 164.019 81.189 165.169 85.839 165.169 91.239 C 165.169 101.639 161.169 109.766 153.169 115.619 C 145.169 121.466 133.919 124.389 119.419 124.389 ZM 221.269 105.039 C 223.469 105.039 225.919 104.889 228.619 104.589 L 227.269 123.639 C 224.069 124.039 220.969 124.239 217.969 124.239 C 205.969 124.239 197.246 121.712 191.799 116.659 C 186.346 111.612 183.619 103.789 183.619 93.189 L 183.619 68.889 L 169.819 68.889 L 169.819 49.239 L 183.619 49.239 L 183.619 27.789 L 210.319 27.789 L 210.319 49.239 L 228.019 49.239 L 228.019 68.889 L 210.319 68.889 L 210.319 93.339 C 210.319 101.139 213.969 105.039 221.269 105.039 ZM 275.119 124.239 C 267.019 124.239 259.896 122.666 253.749 119.519 C 247.596 116.366 242.846 111.889 239.499 106.089 C 236.146 100.289 234.469 93.489 234.469 85.689 C 234.469 77.889 236.146 71.116 239.499 65.369 C 242.846 59.616 247.569 55.189 253.669 52.089 C 259.769 48.989 266.919 47.439 275.119 47.439 C 283.319 47.439 290.469 48.989 296.569 52.089 C 302.669 55.189 307.396 59.616 310.749 65.369 C 314.096 71.116 315.769 77.889 315.769 85.689 C 315.769 93.489 314.096 100.289 310.749 106.089 C 307.396 111.889 302.669 116.366 296.569 119.519 C 290.469 122.666 283.319 124.239 275.119 124.239 Z M 275.119 104.289 C 284.619 104.289 289.369 98.089 289.369 85.689 C 289.369 73.289 284.619 67.089 275.119 67.089 C 265.619 67.089 260.869 73.289 260.869 85.689 C 260.869 98.089 265.619 104.289 275.119 104.289 ZM 383.269 47.139 L 384.769 69.189 L 370.219 70.689 C 364.419 71.289 360.369 72.839 358.069 75.339 C 355.769 77.839 354.619 81.389 354.619 85.989 L 354.619 123.039 L 327.919 123.039 L 327.919 49.239 L 353.269 49.239 L 353.269 61.989 C 354.969 57.489 357.769 54.062 361.669 51.709 C 365.569 49.362 370.319 48.039 375.919 47.739 L 383.269 47.139 ZM 424.669 47.439 C 436.269 47.439 444.842 50.112 450.389 55.459 C 455.942 60.812 458.719 69.139 458.719 80.439 L 458.719 123.039 L 433.669 123.039 L 433.669 112.689 C 432.269 116.289 429.919 119.112 426.619 121.159 C 423.319 123.212 419.369 124.239 414.769 124.239 C 409.669 124.239 405.069 123.212 400.969 121.159 C 396.869 119.112 393.642 116.266 391.289 112.619 C 388.942 108.966 387.769 104.839 387.769 100.239 C 387.769 94.939 389.146 90.712 391.899 87.559 C 394.646 84.412 399.019 82.139 405.019 80.739 C 411.019 79.339 419.119 78.639 429.319 78.639 L 433.369 78.639 L 433.369 76.839 C 433.369 73.139 432.519 70.566 430.819 69.119 C 429.119 67.666 426.119 66.939 421.819 66.939 C 418.419 66.939 414.496 67.616 410.049 68.969 C 405.596 70.316 401.419 72.039 397.519 74.139 L 390.769 56.589 C 395.069 53.989 400.442 51.816 406.889 50.069 C 413.342 48.316 419.269 47.439 424.669 47.439 Z M 421.069 106.389 C 424.669 106.389 427.619 105.116 429.919 102.569 C 432.219 100.016 433.369 96.739 433.369 92.739 L 433.369 90.939 L 430.969 90.939 C 424.569 90.939 420.019 91.512 417.319 92.659 C 414.619 93.812 413.269 95.739 413.269 98.439 C 413.269 100.739 413.992 102.639 415.439 104.139 C 416.892 105.639 418.769 106.389 421.069 106.389 ZM 526.219 49.239 L 552.469 49.239 L 552.469 114.039 C 552.469 126.239 548.842 135.489 541.589 141.789 C 534.342 148.089 523.619 151.239 509.419 151.239 C 502.719 151.239 496.219 150.466 489.919 148.919 C 483.619 147.366 478.169 145.189 473.569 142.389 L 480.319 124.239 C 484.919 126.639 489.692 128.489 494.639 129.789 C 499.592 131.089 504.269 131.739 508.669 131.739 C 514.569 131.739 518.946 130.466 521.799 127.919 C 524.646 125.366 526.069 121.339 526.069 115.839 L 526.069 110.139 C 523.869 113.439 520.719 116.066 516.619 118.019 C 512.519 119.966 508.069 120.939 503.269 120.939 C 496.869 120.939 491.169 119.439 486.169 116.439 C 481.169 113.439 477.269 109.162 474.469 103.609 C 471.669 98.062 470.269 91.639 470.269 84.339 C 470.269 77.039 471.669 70.589 474.469 64.989 C 477.269 59.389 481.169 55.066 486.169 52.019 C 491.169 48.966 496.869 47.439 503.269 47.439 C 508.169 47.439 512.669 48.439 516.769 50.439 C 520.869 52.439 524.019 55.189 526.219 58.689 L 526.219 49.239 Z M 511.369 100.989 C 516.069 100.989 519.719 99.516 522.319 96.569 C 524.919 93.616 526.219 89.539 526.219 84.339 C 526.219 79.039 524.919 74.889 522.319 71.889 C 519.719 68.889 516.069 67.389 511.369 67.389 C 506.769 67.389 503.169 68.862 500.569 71.809 C 497.969 74.762 496.669 78.939 496.669 84.339 C 496.669 89.539 497.996 93.616 500.649 96.569 C 503.296 99.516 506.869 100.989 511.369 100.989 ZM 636.169 85.239 L 636.169 91.239 L 590.569 91.239 C 591.369 96.039 593.119 99.489 595.819 101.589 C 598.519 103.689 602.369 104.739 607.369 104.739 C 610.969 104.739 614.619 104.139 618.319 102.939 C 622.019 101.739 625.319 100.089 628.219 97.989 L 634.969 115.539 C 631.269 118.239 626.819 120.362 621.619 121.909 C 616.419 123.462 611.219 124.239 606.019 124.239 C 597.519 124.239 590.169 122.689 583.969 119.589 C 577.769 116.489 572.996 112.039 569.649 106.239 C 566.296 100.439 564.619 93.639 564.619 85.839 C 564.619 78.439 566.192 71.816 569.339 65.969 C 572.492 60.116 576.892 55.566 582.539 52.319 C 588.192 49.066 594.569 47.439 601.669 47.439 C 612.269 47.439 620.669 50.816 626.869 57.569 C 633.069 64.316 636.169 73.539 636.169 85.239 Z M 602.419 65.439 C 595.319 65.439 591.269 69.839 590.269 78.639 L 613.819 78.639 C 613.219 69.839 609.419 65.439 602.419 65.439 ZM 731.269 124.389 C 723.369 124.389 715.569 123.339 707.869 121.239 C 700.169 119.139 693.919 116.339 689.119 112.839 L 697.669 93.339 C 702.769 96.539 708.219 98.989 714.019 100.689 C 719.819 102.389 725.669 103.239 731.569 103.239 C 737.569 103.239 742.146 102.416 745.299 100.769 C 748.446 99.116 750.019 96.789 750.019 93.789 C 750.019 91.089 748.592 88.889 745.739 87.189 C 742.892 85.489 737.469 83.789 729.469 82.089 C 719.569 79.989 711.819 77.489 706.219 74.589 C 700.619 71.689 696.696 68.289 694.449 64.389 C 692.196 60.489 691.069 55.689 691.069 49.989 C 691.069 43.489 692.896 37.666 696.549 32.519 C 700.196 27.366 705.342 23.316 711.989 20.369 C 718.642 17.416 726.269 15.939 734.869 15.939 C 742.469 15.939 749.846 17.012 756.999 19.159 C 764.146 21.312 769.719 24.089 773.719 27.489 L 765.319 46.989 C 755.719 40.389 745.619 37.089 735.019 37.089 C 729.919 37.089 725.819 38.066 722.719 40.019 C 719.619 41.966 718.069 44.539 718.069 47.739 C 718.069 49.639 718.619 51.189 719.719 52.389 C 720.819 53.589 722.869 54.762 725.869 55.909 C 728.869 57.062 733.319 58.239 739.219 59.439 C 748.819 61.539 756.369 64.066 761.869 67.019 C 767.369 69.966 771.269 73.389 773.569 77.289 C 775.869 81.189 777.019 85.839 777.019 91.239 C 777.019 101.639 773.019 109.766 765.019 115.619 C 757.019 121.466 745.769 124.389 731.269 124.389 ZM 838.519 49.239 L 865.219 49.239 L 865.219 123.039 L 839.269 123.039 L 839.269 113.139 C 836.969 116.739 834.046 119.489 830.499 121.389 C 826.946 123.289 822.869 124.239 818.269 124.239 C 808.769 124.239 801.719 121.616 797.119 116.369 C 792.519 111.116 790.219 103.139 790.219 92.439 L 790.219 49.239 L 816.919 49.239 L 816.919 93.039 C 816.919 100.239 820.019 103.839 826.219 103.839 C 829.819 103.839 832.769 102.539 835.069 99.939 C 837.369 97.339 838.519 93.939 838.519 89.739 L 838.519 49.239 ZM 929.719 47.439 C 936.019 47.439 941.646 49.066 946.599 52.319 C 951.546 55.566 955.396 60.139 958.149 66.039 C 960.896 71.939 962.269 78.689 962.269 86.289 C 962.269 93.889 960.896 100.566 958.149 106.319 C 955.396 112.066 951.569 116.489 946.669 119.589 C 941.769 122.689 936.119 124.239 929.719 124.239 C 925.019 124.239 920.696 123.289 916.749 121.389 C 912.796 119.489 909.719 116.939 907.519 113.739 L 907.519 150.039 L 880.819 150.039 L 880.819 49.239 L 907.069 49.239 L 907.069 58.689 C 909.169 55.189 912.242 52.439 916.289 50.439 C 920.342 48.439 924.819 47.439 929.719 47.439 Z M 921.619 104.289 C 926.219 104.289 929.742 102.739 932.189 99.639 C 934.642 96.539 935.869 92.089 935.869 86.289 C 935.869 80.189 934.619 75.516 932.119 72.269 C 929.619 69.016 926.069 67.389 921.469 67.389 C 916.869 67.389 913.319 68.989 910.819 72.189 C 908.319 75.389 907.069 79.989 907.069 85.989 C 907.069 91.889 908.319 96.416 910.819 99.569 C 913.319 102.716 916.919 104.289 921.619 104.289 ZM 1023.469 47.439 C 1029.769 47.439 1035.396 49.066 1040.349 52.319 C 1045.296 55.566 1049.146 60.139 1051.899 66.039 C 1054.646 71.939 1056.019 78.689 1056.019 86.289 C 1056.019 93.889 1054.646 100.566 1051.899 106.319 C 1049.146 112.066 1045.319 116.489 1040.419 119.589 C 1035.519 122.689 1029.869 124.239 1023.469 124.239 C 1018.769 124.239 1014.446 123.289 1010.499 121.389 C 1006.546 119.489 1003.469 116.939 1001.269 113.739 L 1001.269 150.039 L 974.569 150.039 L 974.569 49.239 L 1000.819 49.239 L 1000.819 58.689 C 1002.919 55.189 1005.992 52.439 1010.039 50.439 C 1014.092 48.439 1018.569 47.439 1023.469 47.439 Z M 1015.369 104.289 C 1019.969 104.289 1023.492 102.739 1025.939 99.639 C 1028.392 96.539 1029.619 92.089 1029.619 86.289 C 1029.619 80.189 1028.369 75.516 1025.869 72.269 C 1023.369 69.016 1019.819 67.389 1015.219 67.389 C 1010.619 67.389 1007.069 68.989 1004.569 72.189 C 1002.069 75.389 1000.819 79.989 1000.819 85.989 C 1000.819 91.889 1002.069 96.416 1004.569 99.569 C 1007.069 102.716 1010.669 104.289 1015.369 104.289 ZM 1105.519 124.239 C 1097.419 124.239 1090.296 122.666 1084.149 119.519 C 1077.996 116.366 1073.246 111.889 1069.899 106.089 C 1066.546 100.289 1064.869 93.489 1064.869 85.689 C 1064.869 77.889 1066.546 71.116 1069.899 65.369 C 1073.246 59.616 1077.969 55.189 1084.069 52.089 C 1090.169 48.989 1097.319 47.439 1105.519 47.439 C 1113.719 47.439 1120.869 48.989 1126.969 52.089 C 1133.069 55.189 1137.796 59.616 1141.149 65.369 C 1144.496 71.116 1146.169 77.889 1146.169 85.689 C 1146.169 93.489 1144.496 100.289 1141.149 106.089 C 1137.796 111.889 1133.069 116.366 1126.969 119.519 C 1120.869 122.666 1113.719 124.239 1105.519 124.239 Z M 1105.519 104.289 C 1115.019 104.289 1119.769 98.089 1119.769 85.689 C 1119.769 73.289 1115.019 67.089 1105.519 67.089 C 1096.019 67.089 1091.269 73.289 1091.269 85.689 C 1091.269 98.089 1096.019 104.289 1105.519 104.289 ZM 1213.669 47.139 L 1215.169 69.189 L 1200.619 70.689 C 1194.819 71.289 1190.769 72.839 1188.469 75.339 C 1186.169 77.839 1185.019 81.389 1185.019 85.989 L 1185.019 123.039 L 1158.319 123.039 L 1158.319 49.239 L 1183.669 49.239 L 1183.669 61.989 C 1185.369 57.489 1188.169 54.062 1192.069 51.709 C 1195.969 49.362 1200.719 48.039 1206.319 47.739 L 1213.669 47.139 ZM 1273.219 105.039 C 1275.419 105.039 1277.869 104.889 1280.569 104.589 L 1279.219 123.639 C 1276.019 124.039 1272.919 124.239 1269.919 124.239 C 1257.919 124.239 1249.196 121.712 1243.749 116.659 C 1238.296 111.612 1235.569 103.789 1235.569 93.189 L 1235.569 68.889 L 1221.769 68.889 L 1221.769 49.239 L 1235.569 49.239 L 1235.569 27.789 L 1262.269 27.789 L 1262.269 49.239 L 1279.969 49.239 L 1279.969 68.889 L 1262.269 68.889 L 1262.269 93.339 C 1262.269 101.139 1265.919 105.039 1273.219 105.039 Z" transform="matrix(1, 0, 0, 1, 0, 0)" style="fill: rgb(255, 68, 0); white-space: pre;"/>
</svg>