<?xml version="1.0" encoding="utf-8"?>
<svg viewBox="1.093999981880188 21.75 172.8280029296875 35.15599822998047" width="172.8280029296875" height="35.15599822998047" xmlns="http://www.w3.org/2000/svg">
  <path d="M 6.798 49.25 C 5.098 49.25 3.838 48.77 3.018 47.81 C 2.191 46.85 1.778 45.427 1.778 43.54 L 1.778 28.44 L 5.788 28.44 L 5.788 43.37 C 5.788 44.03 5.851 44.543 5.978 44.91 C 6.105 45.277 6.378 45.46 6.798 45.46 C 7.211 45.46 7.481 45.28 7.608 44.92 C 7.741 44.56 7.808 44.043 7.808 43.37 L 7.808 28.44 L 11.808 28.44 L 11.808 43.54 C 11.808 45.427 11.398 46.85 10.578 47.81 C 9.751 48.77 8.491 49.25 6.798 49.25 ZM 13.319 49.06 L 13.319 31.49 L 17.519 31.49 L 17.519 33.72 C 17.693 33 17.996 32.417 18.429 31.97 C 18.863 31.523 19.439 31.3 20.159 31.3 C 21.346 31.3 22.223 31.663 22.789 32.39 C 23.356 33.117 23.639 34.153 23.639 35.5 L 23.639 49.06 L 19.509 49.06 L 19.509 35.93 C 19.509 35.55 19.433 35.223 19.279 34.95 C 19.133 34.677 18.899 34.54 18.579 34.54 C 18.146 34.54 17.859 34.737 17.719 35.13 C 17.586 35.523 17.519 36.047 17.519 36.7 L 17.519 49.06 L 13.319 49.06 ZM 29.471 30.32 L 25.271 30.32 L 25.271 27.39 L 29.471 27.39 L 29.471 30.32 Z M 29.471 49.06 L 25.271 49.06 L 25.271 31.49 L 29.471 31.49 L 29.471 49.06 ZM 38.03 40.16 L 41.2 49.06 L 37 49.06 L 35.22 44.12 L 33.54 49.06 L 30.38 49.06 L 33.59 39.63 L 30.66 31.47 L 34.94 31.47 L 36.45 35.74 L 37.94 31.47 L 41.06 31.47 L 38.03 40.16 ZM 51.276 49.06 L 47.266 49.06 L 49.256 28.44 L 56.246 28.44 L 58.206 49.06 L 54.296 49.06 L 54.006 45.72 L 51.516 45.72 L 51.276 49.06 Z M 52.596 31.95 L 51.826 42.44 L 53.696 42.44 L 52.786 31.95 L 52.596 31.95 ZM 59.381 49.06 L 59.381 31.49 L 63.581 31.49 L 63.581 33.72 C 63.755 33 64.058 32.417 64.491 31.97 C 64.925 31.523 65.501 31.3 66.221 31.3 C 67.408 31.3 68.285 31.663 68.851 32.39 C 69.418 33.117 69.701 34.153 69.701 35.5 L 69.701 49.06 L 65.571 49.06 L 65.571 35.93 C 65.571 35.55 65.495 35.223 65.341 34.95 C 65.195 34.677 64.961 34.54 64.641 34.54 C 64.208 34.54 63.921 34.737 63.781 35.13 C 63.648 35.523 63.581 36.047 63.581 36.7 L 63.581 49.06 L 59.381 49.06 ZM 74.812 49.25 C 73.786 49.25 73.012 49.007 72.492 48.52 C 71.972 48.033 71.629 47.387 71.462 46.58 C 71.296 45.767 71.212 44.73 71.212 43.47 L 71.252 35.55 C 71.252 34.303 71.569 33.283 72.202 32.49 C 72.836 31.697 73.729 31.3 74.882 31.3 C 76.016 31.3 76.862 31.677 77.422 32.43 L 77.422 28.32 L 81.622 28.32 L 81.622 49.06 L 77.422 49.06 L 77.422 47.19 C 77.182 47.877 76.859 48.393 76.452 48.74 C 76.046 49.08 75.499 49.25 74.812 49.25 Z M 76.412 45.96 C 76.832 45.96 77.106 45.757 77.232 45.35 C 77.359 44.943 77.422 44.397 77.422 43.71 L 77.422 42.96 L 77.422 36.36 C 77.422 35.853 77.352 35.423 77.212 35.07 C 77.066 34.717 76.809 34.54 76.442 34.54 C 76.022 34.54 75.746 34.703 75.612 35.03 C 75.479 35.357 75.412 35.8 75.412 36.36 L 75.412 43.76 C 75.412 45.227 75.746 45.96 76.412 45.96 ZM 92.703 49.06 L 88.983 49.06 L 88.983 28.44 L 95.273 28.44 L 97.003 41.02 L 98.733 28.44 L 105.063 28.44 L 105.063 49.06 L 101.293 49.06 L 101.293 34.2 L 98.923 49.06 L 95.223 49.06 L 92.703 34.2 L 92.703 49.06 ZM 111.92 49.25 C 108.42 49.25 106.67 47.433 106.67 43.8 L 106.67 36.75 C 106.67 35.083 107.137 33.76 108.07 32.78 C 109.004 31.793 110.287 31.3 111.92 31.3 C 113.554 31.3 114.837 31.793 115.77 32.78 C 116.71 33.76 117.18 35.083 117.18 36.75 L 117.18 43.8 C 117.18 47.433 115.427 49.25 111.92 49.25 Z M 111.92 46.01 C 112.26 46.01 112.51 45.89 112.67 45.65 C 112.83 45.41 112.91 45.083 112.91 44.67 L 112.91 36.08 C 112.91 35.053 112.58 34.54 111.92 34.54 C 111.267 34.54 110.94 35.053 110.94 36.08 L 110.94 44.67 C 110.94 45.083 111.02 45.41 111.18 45.65 C 111.34 45.89 111.587 46.01 111.92 46.01 ZM 118.734 49.06 L 118.734 31.49 L 122.934 31.49 L 122.934 33.44 C 123.14 32.747 123.504 32.213 124.024 31.84 C 124.544 31.467 125.187 31.28 125.954 31.28 L 125.954 34.78 C 125.367 34.78 124.717 34.863 124.004 35.03 C 123.29 35.197 122.934 35.393 122.934 35.62 L 122.934 49.06 L 118.734 49.06 ZM 131.906 49.25 C 130.1 49.25 128.803 48.753 128.016 47.76 C 127.236 46.773 126.846 45.293 126.846 43.32 L 126.846 36.27 C 126.846 34.65 127.31 33.417 128.236 32.57 C 129.163 31.723 130.46 31.3 132.126 31.3 C 135.5 31.3 137.186 32.957 137.186 36.27 L 137.186 37.54 C 137.186 38.82 137.17 39.86 137.136 40.66 L 131.046 40.66 L 131.046 44.07 C 131.046 44.677 131.11 45.153 131.236 45.5 C 131.363 45.84 131.633 46.01 132.046 46.01 C 132.366 46.01 132.596 45.913 132.736 45.72 C 132.87 45.533 132.95 45.313 132.976 45.06 C 132.996 44.813 133.006 44.45 133.006 43.97 L 133.006 42.27 L 137.186 42.27 L 137.186 43.28 C 137.186 45.327 136.79 46.833 135.996 47.8 C 135.203 48.767 133.84 49.25 131.906 49.25 Z M 131.016 38.57 L 133.006 38.57 L 133.006 36.32 C 133.006 35.053 132.696 34.42 132.076 34.42 C 131.37 34.42 131.016 35.053 131.016 36.32 L 131.016 38.57 ZM 152.757 49.06 L 144.377 49.06 L 144.377 28.44 L 148.507 28.44 L 148.507 45.56 L 152.757 45.56 L 152.757 49.06 ZM 162.282 49.06 L 153.902 49.06 L 153.902 28.44 L 158.032 28.44 L 158.032 45.56 L 162.282 45.56 L 162.282 49.06 ZM 168.226 49.25 C 166.726 49.25 165.523 48.78 164.616 47.84 C 163.709 46.893 163.256 45.597 163.256 43.95 L 163.256 34.44 C 163.256 32.393 163.666 30.85 164.486 29.81 C 165.299 28.77 166.579 28.25 168.326 28.25 C 169.846 28.25 171.069 28.667 171.996 29.5 C 172.923 30.333 173.386 31.533 173.386 33.1 L 173.386 36.65 L 169.286 36.65 L 169.286 33.6 C 169.286 33.013 169.213 32.607 169.066 32.38 C 168.926 32.153 168.679 32.04 168.326 32.04 C 167.959 32.04 167.706 32.17 167.566 32.43 C 167.433 32.683 167.366 33.06 167.366 33.56 L 167.366 43.9 C 167.366 44.447 167.446 44.843 167.606 45.09 C 167.766 45.337 168.006 45.46 168.326 45.46 C 168.966 45.46 169.286 44.94 169.286 43.9 L 169.286 40.18 L 173.436 40.18 L 173.436 44.07 C 173.436 47.523 171.699 49.25 168.226 49.25 Z" transform="matrix(1, 0, 0, 1, -3.552713678800501e-15, 0)" style="fill: rgb(239, 35, 13); white-space: pre;"/>
</svg>