<?xml version="1.0" encoding="utf-8"?>
<svg viewBox="0 0 500 500" xmlns="http://www.w3.org/2000/svg">
  <path d="M 21.465 191.516 C 18.425 191.516 16.168 190.656 14.695 188.936 C 13.215 187.216 12.475 184.666 12.475 181.286 L 12.475 154.236 L 19.665 154.236 L 19.665 180.986 C 19.665 182.159 19.778 183.076 20.005 183.736 C 20.232 184.396 20.718 184.726 21.465 184.726 C 22.212 184.726 22.698 184.403 22.925 183.756 C 23.158 183.109 23.275 182.186 23.275 180.986 L 23.275 154.236 L 30.455 154.236 L 30.455 181.286 C 30.455 184.666 29.715 187.216 28.235 188.936 C 26.762 190.656 24.505 191.516 21.465 191.516 ZM 33.167 191.176 L 33.167 159.696 L 40.687 159.696 L 40.687 163.696 C 41 162.409 41.544 161.363 42.317 160.556 C 43.097 159.756 44.13 159.356 45.417 159.356 C 47.537 159.356 49.107 160.009 50.127 161.316 C 51.147 162.616 51.657 164.469 51.657 166.876 L 51.657 191.176 L 44.257 191.176 L 44.257 167.656 C 44.257 166.969 44.12 166.383 43.847 165.896 C 43.574 165.403 43.15 165.156 42.577 165.156 C 41.804 165.156 41.297 165.509 41.057 166.216 C 40.81 166.916 40.687 167.853 40.687 169.026 L 40.687 191.176 L 33.167 191.176 ZM 62.104 157.596 L 54.574 157.596 L 54.574 152.346 L 62.104 152.346 L 62.104 157.596 Z M 62.104 191.176 L 54.574 191.176 L 54.574 159.696 L 62.104 159.696 L 62.104 191.176 ZM 77.453 175.226 L 83.133 191.176 L 75.603 191.176 L 72.423 182.316 L 69.413 191.176 L 63.733 191.176 L 69.493 174.276 L 64.253 159.656 L 71.903 159.656 L 74.613 167.306 L 77.283 159.656 L 82.873 159.656 L 77.453 175.226 ZM 101.191 191.176 L 94.011 191.176 L 97.571 154.236 L 110.091 154.236 L 113.611 191.176 L 106.601 191.176 L 106.091 185.196 L 101.621 185.196 L 101.191 191.176 Z M 103.551 160.516 L 102.181 179.306 L 105.531 179.306 L 103.901 160.516 L 103.551 160.516 ZM 115.726 191.176 L 115.726 159.696 L 123.246 159.696 L 123.246 163.696 C 123.56 162.409 124.103 161.363 124.876 160.556 C 125.656 159.756 126.69 159.356 127.976 159.356 C 130.096 159.356 131.666 160.009 132.686 161.316 C 133.706 162.616 134.216 164.469 134.216 166.876 L 134.216 191.176 L 126.816 191.176 L 126.816 167.656 C 126.816 166.969 126.68 166.383 126.406 165.896 C 126.133 165.403 125.71 165.156 125.136 165.156 C 124.363 165.156 123.856 165.509 123.616 166.216 C 123.37 166.916 123.246 167.853 123.246 169.026 L 123.246 191.176 L 115.726 191.176 ZM 143.373 191.516 C 141.54 191.516 140.157 191.079 139.223 190.206 C 138.29 189.333 137.673 188.173 137.373 186.726 C 137.073 185.279 136.923 183.423 136.923 181.156 L 137.003 166.966 C 137.003 164.733 137.57 162.906 138.703 161.486 C 139.837 160.066 141.437 159.356 143.503 159.356 C 145.537 159.356 147.053 160.029 148.053 161.376 L 148.053 154.026 L 155.583 154.026 L 155.583 191.176 L 148.053 191.176 L 148.053 187.826 C 147.627 189.053 147.047 189.976 146.313 190.596 C 145.587 191.209 144.607 191.516 143.373 191.516 Z M 146.253 185.626 C 147 185.626 147.487 185.263 147.713 184.536 C 147.94 183.803 148.053 182.819 148.053 181.586 L 148.053 180.256 L 148.053 168.426 C 148.053 167.513 147.927 166.739 147.673 166.106 C 147.413 165.473 146.953 165.156 146.293 165.156 C 145.547 165.156 145.053 165.453 144.813 166.046 C 144.567 166.633 144.443 167.426 144.443 168.426 L 144.443 181.676 C 144.443 184.309 145.047 185.626 146.253 185.626 ZM 175.449 191.176 L 168.779 191.176 L 168.779 154.236 L 180.049 154.236 L 183.149 176.766 L 186.239 154.236 L 197.589 154.236 L 197.589 191.176 L 190.839 191.176 L 190.839 164.556 L 186.589 191.176 L 179.959 191.176 L 175.449 164.556 L 175.449 191.176 ZM 209.887 191.516 C 203.613 191.516 200.477 188.263 200.477 181.756 L 200.477 169.116 C 200.477 166.136 201.313 163.763 202.987 161.996 C 204.667 160.236 206.967 159.356 209.887 159.356 C 212.813 159.356 215.117 160.236 216.797 161.996 C 218.47 163.763 219.307 166.136 219.307 169.116 L 219.307 181.756 C 219.307 188.263 216.167 191.516 209.887 191.516 Z M 209.887 185.716 C 210.493 185.716 210.94 185.499 211.227 185.066 C 211.513 184.639 211.657 184.053 211.657 183.306 L 211.657 167.916 C 211.657 166.076 211.067 165.156 209.887 165.156 C 208.713 165.156 208.127 166.076 208.127 167.916 L 208.127 183.306 C 208.127 184.053 208.27 184.639 208.557 185.066 C 208.843 185.499 209.287 185.716 209.887 185.716 ZM 222.108 191.176 L 222.108 159.696 L 229.628 159.696 L 229.628 163.186 C 230.001 161.953 230.654 160.999 231.588 160.326 C 232.514 159.653 233.668 159.316 235.048 159.316 L 235.048 165.586 C 233.988 165.586 232.818 165.739 231.538 166.046 C 230.264 166.346 229.628 166.696 229.628 167.096 L 229.628 191.176 L 222.108 191.176 ZM 245.71 191.516 C 242.47 191.516 240.146 190.629 238.74 188.856 C 237.34 187.076 236.64 184.423 236.64 180.896 L 236.64 168.256 C 236.64 165.363 237.47 163.156 239.13 161.636 C 240.796 160.116 243.12 159.356 246.1 159.356 C 252.146 159.356 255.17 162.323 255.17 168.256 L 255.17 170.536 C 255.17 172.829 255.14 174.693 255.08 176.126 L 244.16 176.126 L 244.16 182.236 C 244.16 183.323 244.276 184.173 244.51 184.786 C 244.736 185.406 245.223 185.716 245.97 185.716 C 246.543 185.716 246.95 185.543 247.19 185.196 C 247.436 184.856 247.58 184.463 247.62 184.016 C 247.666 183.569 247.69 182.916 247.69 182.056 L 247.69 179.006 L 255.17 179.006 L 255.17 180.816 C 255.17 184.483 254.46 187.183 253.04 188.916 C 251.62 190.649 249.176 191.516 245.71 191.516 Z M 244.12 172.386 L 247.69 172.386 L 247.69 168.346 C 247.69 166.079 247.13 164.946 246.01 164.946 C 244.75 164.946 244.12 166.079 244.12 168.346 L 244.12 172.386 ZM 283.075 191.176 L 268.065 191.176 L 268.065 154.236 L 275.465 154.236 L 275.465 184.896 L 283.075 184.896 L 283.075 191.176 ZM 300.146 191.176 L 285.136 191.176 L 285.136 154.236 L 292.536 154.236 L 292.536 184.896 L 300.146 184.896 L 300.146 191.176 ZM 310.807 191.516 C 308.114 191.516 305.957 190.673 304.337 188.986 C 302.717 187.293 301.907 184.969 301.907 182.016 L 301.907 164.986 C 301.907 161.319 302.641 158.553 304.107 156.686 C 305.567 154.826 307.861 153.896 310.987 153.896 C 313.707 153.896 315.901 154.639 317.567 156.126 C 319.227 157.619 320.057 159.769 320.057 162.576 L 320.057 168.946 L 312.707 168.946 L 312.707 163.486 C 312.707 162.426 312.577 161.693 312.317 161.286 C 312.057 160.886 311.614 160.686 310.987 160.686 C 310.327 160.686 309.874 160.916 309.627 161.376 C 309.387 161.836 309.267 162.509 309.267 163.396 L 309.267 181.926 C 309.267 182.906 309.411 183.616 309.697 184.056 C 309.984 184.503 310.414 184.726 310.987 184.726 C 312.134 184.726 312.707 183.793 312.707 181.926 L 312.707 175.266 L 320.147 175.266 L 320.147 182.236 C 320.147 188.423 317.034 191.516 310.807 191.516 Z" transform="matrix(1.4891330003738403, 0, 0, 1.5503959655761719, -5.5103840827941895, -78.24217987060547)" style="fill: rgb(226, 22, 22); white-space: pre;"/>
</svg>